<svg id="SvgjsSvg1517" width="360" height="360" xmlns="http://www.w3.org/2000/svg" version="1.1" xmlns:xlink="http://www.w3.org/1999/xlink" xmlns:svgjs="http://svgjs.com/svgjs"><defs id="SvgjsDefs1518"></defs><g id="SvgjsG1519"><svg xmlns="http://www.w3.org/2000/svg" xmlns:xlink="http://www.w3.org/1999/xlink" enable-background="new 0 0 1000 1000" viewBox="0 0 1000 1000" width="360" height="360"><path fill="#f2c2d3" d="M150.6,787.92c0,0-3.01-117.17,20.63-186.78c23.63-69.61-93.64-174.58-10.25-244.36    c36.37-30.43,198.97-209.38,376-147.66c134.4,46.86,72.75,111.48,99.36,180.99c26.61,69.5,65.4,146.27,79.43,161.57    c14.03,15.29-13.06-59-13.12-92.06c-0.06-33.07,100.11-2.28,133.51,48.11c33.4,50.39-10.27,209.59-27.77,241    c-17.5,31.41-60.13,39.19-60.13,39.19L150.6,787.92z" class="colorc2d8f2 svgShape"></path><path fill="#dd99dc" d="M857.33,791.31l-2.61-2.92c0.76-0.68,1.19-2.05,1.13-3.58c-0.06-1.56-0.64-2.98-1.47-3.61      c-6.13-4.67-20.32-0.77-30.67,2.08c-9.08,2.5-14.57,4-16.72,1.25c-1.61-2.06-0.01-4.91,0.51-5.84      c3.53-6.3,15.69-9.54,29.77-13.29c18.77-5,40.04-10.66,39.53-24.05c-0.12-3-1.06-5.21-2.88-6.77c-5.06-4.32-16.17-2.98-24.29-2      c-7.27,0.88-11.67,1.4-13.05-1.39c-1.17-2.36,1.01-5.09,3.53-7.7c5.87-6.05,11.9-17.95,15.38-30.31      c3.79-13.49,4-24.93,0.56-31.39c-2.63-4.95-7.28-6.76-14.19-5.52c-16.33,2.92-19.27,21.75-21.85,38.36      c-1.1,7.08-2.15,13.77-4.19,18.59c-2.49,5.88-6.43,8.5-11.71,7.78c-11.66-1.59-14.05-12.59-15.96-21.43      c-1.16-5.37-2.26-10.43-5.02-11.85c-1.55-0.8-3.89-0.53-6.95,0.8c-9.38,4.06-6.86,20.58-4.41,36.55      c1.24,8.1,2.52,16.47,2.18,23.2c-0.41,8.16-3.18,13.11-8.47,15.12c-11.26,4.29-15.74-4.64-19.01-11.17      c-1.92-3.83-3.73-7.44-6.19-7.88c-1.98-0.35-4.79,1.19-8.36,4.56c-9.52,8.99-5.39,27.21,1.05,40.09l-3.5,1.75      c-1.67-3.34-5.68-12.16-6.79-21.86c-1.14-9.96,1.06-17.64,6.55-22.82c4.65-4.39,8.38-6.16,11.73-5.57      c4.4,0.78,6.74,5.46,9.01,9.98c3.83,7.65,6.7,12.09,14.11,9.26c8.53-3.25,6.13-18.92,3.81-34.08      c-2.67-17.44-5.42-35.48,6.73-40.73c4.25-1.84,7.61-2.06,10.29-0.69c4.41,2.26,5.69,8.21,7.06,14.5      c1.83,8.44,3.72,17.16,12.67,18.38c7.36,1,9.17-8.12,11.5-23.09c2.65-17.02,5.95-38.2,25.03-41.61      c10.81-1.93,15.94,3.03,18.33,7.54c3.9,7.34,3.81,19.84-0.25,34.28c-3.69,13.14-9.95,25.39-16.34,31.98      c-1.56,1.61-2.24,2.57-2.53,3.09c1.64,0.24,5.7-0.25,8.77-0.62c9.32-1.12,20.93-2.52,27.3,2.91c2.66,2.27,4.09,5.5,4.25,9.59      c0.64,16.51-22.25,22.61-42.43,27.98c-12.11,3.23-24.64,6.56-27.36,11.42c-0.41,0.73-0.59,1.21-0.66,1.48      c1.86,0.32,7.92-1.34,12.42-2.58c11.77-3.24,26.41-7.26,34.08-1.42c1.78,1.35,2.9,3.81,3.01,6.57      C859.87,787.37,858.96,789.85,857.33,791.31z" class="color9bd svgShape"></path><path fill="#dd99dc" d="M791.66,790.99l-3.22-2.23c16.39-23.68,38.34-61.85,49.77-109.14l3.8,0.92      C830.44,728.42,808.24,767.03,791.66,790.99z" class="color9bd svgShape"></path><rect width="45.66" height="3.91" x="810.48" y="748.35" fill="#dd99dc" transform="rotate(-12.864 833.15 750.114)" class="color9bd svgShape"></rect><rect width="3.91" height="48.95" x="791.87" y="728.19" fill="#dd99dc" transform="rotate(-11.621 793.957 752.821)" class="color9bd svgShape"></rect><rect width="3.91" height="15.93" x="750.33" y="775.28" fill="#dd99dc" transform="rotate(-33.942 752.24 783.17)" class="color9bd svgShape"></rect><path fill="#dd99dc" d="M160.24,793.79c-19.17,0-35.42-7.2-43.48-19.25c-4.75-7.11-5.85-15.08-3.03-21.88      c2.25-5.43,13.53-3.23,31.75,0.82c6.47,1.44,13.16,2.92,18.35,3.58c7.45,0.95,8.58-0.25,8.68-0.39c0.1-0.13,0.16-0.79-0.69-2.3      c-3.51-6.26-18.57-10.27-34.52-14.52c-25.07-6.68-53.49-14.25-52.71-34.51c0.19-4.98,1.92-8.9,5.14-11.65      c7.8-6.65,22.81-4.85,33.77-3.53c4.31,0.52,10.13,1.22,11.74,0.63c-0.18-0.51-0.86-1.82-3.52-4.56      c-7.93-8.18-15.72-23.43-20.32-39.79c-5.05-17.95-5.17-33.45-0.35-42.52c2.92-5.49,9.18-11.54,22.41-9.17      c10.56,1.89,18.14,8.33,23.18,19.69c4.26,9.6,6.11,21.47,7.74,31.95c2.96,19.02,5.27,30.62,14.93,29.3      c11.53-1.57,13.94-12.66,16.26-23.37c1.68-7.76,3.27-15.08,8.57-17.81c3.21-1.65,7.28-1.36,12.45,0.87      c14.85,6.42,11.43,28.79,8.13,50.42c-1.52,9.91-3.08,20.17-2.69,28.14c0.42,8.39,2.89,13.16,7.77,15.02      c10.58,4.03,15.79-2.9,20.83-9.6c3.35-4.46,6.52-8.67,11.1-8.54c3.91,0.11,7.76,3.33,12.5,10.43c4.67,7.01,6.51,15.22,5.45,24.4      c-0.83,7.21-3.44,15.02-7.76,23.22c-7.29,13.83-16.83,23.9-17.23,24.32l-2.83-2.7c0.1-0.1,9.61-10.15,16.64-23.51      c9.22-17.54,10.06-32.19,2.48-43.56c-3.8-5.7-6.94-8.62-9.35-8.69c-0.03,0-0.06,0-0.08,0c-2.53,0-4.96,3.24-7.78,6.99      c-5.07,6.74-12.02,15.98-25.35,10.9c-6.42-2.45-9.79-8.49-10.28-18.48c-0.42-8.36,1.18-18.81,2.73-28.92      c3.08-20.16,6.27-41.02-5.81-46.24c-4.03-1.74-7.01-2.06-9.11-0.98c-3.66,1.88-5.06,8.33-6.54,15.16      c-2.36,10.91-5.3,24.48-19.55,26.42c-6.44,0.88-11.06-2.21-14.13-9.44c-2.53-5.97-3.83-14.3-5.2-23.13      c-3.26-20.94-6.96-44.67-27.74-48.39c-8.76-1.57-14.91,0.84-18.27,7.16c-9.28,17.45,4.01,61.24,20.02,77.75      c3.03,3.13,5.66,6.39,4.33,9.07c-1.58,3.19-6.94,2.54-15.83,1.47c-10.24-1.23-24.26-2.92-30.76,2.62      c-2.39,2.04-3.62,4.92-3.77,8.82c-0.66,17.14,26.15,24.28,49.81,30.58c17.5,4.66,32.61,8.69,36.93,16.39      c1.51,2.69,1.65,4.9,0.42,6.55c-3.14,4.23-13.84,2.11-31.02-1.71c-6.78-1.5-13.78-3.06-19.11-3.68      c-7.5-0.87-8.17,0.53-8.18,0.54c-2.31,5.57-1.34,12.21,2.67,18.21c7.32,10.97,22.36,17.51,40.22,17.51V793.79z" class="color9bd svgShape"></path><path fill="#dd99dc" d="M215.56,793.13c-0.15-0.17-15.01-17.03-32.51-45.51c-10.27-16.72-19.45-34.12-27.26-51.72      c-9.78-22.02-17.45-44.42-22.8-66.58l3.8-0.92c12,49.65,33.57,91.08,49.55,117.1c17.33,28.21,32.01,44.88,32.16,45.05      L215.56,793.13z" class="color9bd svgShape"></path><rect width="3.91" height="57.11" x="141.43" y="688.14" fill="#dd99dc" transform="rotate(-77.132 143.41 716.708)" class="color9bd svgShape"></rect><rect width="61.23" height="3.91" x="162.15" y="717.69" fill="#dd99dc" transform="rotate(-78.375 192.754 719.622)" class="color9bd svgShape"></rect><rect width="50.86" height="3.91" x="210.67" y="768.77" fill="#dd99dc" transform="rotate(-56.06 236.113 770.762)" class="color9bd svgShape"></rect><rect width="3.91" height="50.66" x="172.81" y="758.92" fill="#dd99dc" transform="rotate(-72.585 174.76 784.217)" class="color9bd svgShape"></rect><path fill="#dd99dc" d="M571.89 246.09c-8.9 0-16.14-7.24-16.14-16.14 0-8.9 7.24-16.14 16.14-16.14s16.14 7.24 16.14 16.14C588.03 238.85 580.79 246.09 571.89 246.09zM571.89 217.72c-6.74 0-12.23 5.48-12.23 12.23s5.48 12.23 12.23 12.23c6.74 0 12.23-5.48 12.23-12.23S578.64 217.72 571.89 217.72zM278.96 286.58c-8.9 0-16.14-7.24-16.14-16.14s7.24-16.14 16.14-16.14c8.9 0 16.14 7.24 16.14 16.14S287.86 286.58 278.96 286.58zM278.96 258.21c-6.74 0-12.23 5.48-12.23 12.23 0 6.74 5.48 12.23 12.23 12.23 6.74 0 12.23-5.48 12.23-12.23C291.18 263.69 285.7 258.21 278.96 258.21zM297.98 456.02c-8.9 0-16.14-7.24-16.14-16.14s7.24-16.14 16.14-16.14 16.14 7.24 16.14 16.14S306.88 456.02 297.98 456.02zM297.98 427.66c-6.74 0-12.23 5.48-12.23 12.23s5.48 12.23 12.23 12.23c6.74 0 12.23-5.48 12.23-12.23S304.72 427.66 297.98 427.66zM163.96 542.81c-8.9 0-16.14-7.24-16.14-16.14s7.24-16.14 16.14-16.14 16.14 7.24 16.14 16.14S172.86 542.81 163.96 542.81zM163.96 514.44c-6.74 0-12.23 5.48-12.23 12.23 0 6.74 5.48 12.23 12.23 12.23 6.74 0 12.23-5.48 12.23-12.23C176.19 519.93 170.7 514.44 163.96 514.44z" class="color9bd svgShape"></path><path fill="#574b90" d="M868.12,803.73H91.33l0,0c0-8.74,7.08-15.82,15.82-15.82h745.16C861.04,787.92,868.12,795,868.12,803.73    L868.12,803.73z" class="color576c89 svgShape"></path><path fill="#dd99dc" d="M826.87,644.12c-0.29,0-0.59-0.03-0.88-0.08l-15.87-3.02c-1.81-0.35-3.27-1.73-3.7-3.52l-1.43-5.88       l29.23,5.57l-3.49,4.94C829.84,643.39,828.39,644.12,826.87,644.12z M810.86,637.17l15.87,3.02c0.3,0.06,0.61-0.06,0.79-0.3       l-17.28-3.29C810.32,636.89,810.56,637.11,810.86,637.17L810.86,637.17z" class="color9bd svgShape"></path><path fill="#dd99dc" d="M831.97,640.54c-0.68,0-1.36-0.06-2.04-0.19l-22.13-4.21c-3.11-0.59-5.8-2.51-7.38-5.25l-5.17-8.99        c-1.3-2.25-1.74-4.9-1.26-7.45l4.61-24.2l56.76,10.81l-4.61,24.2c-0.49,2.55-1.87,4.85-3.91,6.47l-8.11,6.46        C836.8,639.72,834.41,640.54,831.97,640.54z M801.72,594.82l-3.88,20.36c-0.31,1.63-0.03,3.33,0.8,4.77l5.17,8.99        c1.01,1.76,2.73,2.98,4.72,3.36l22.13,4.21c1.99,0.38,4.04-0.13,5.63-1.39l8.11-6.46c1.3-1.04,2.19-2.5,2.5-4.14l3.88-20.36        L801.72,594.82z" class="color9bd svgShape"></path><path fill="#dd99dc" d="M852.83,604.43c-0.37,0-0.75-0.03-1.13-0.09c-17.31-0.88-34.5-4.15-51.09-9.73        c-3.42-0.73-5.79-3.98-5.41-7.47l0.01-0.09c1.63-15.24-1.65-21.12-6.6-30c-2.44-4.37-5.21-9.33-8.01-16.35l-0.15-0.38        c-0.15-0.37-0.29-0.75-0.43-1.12l-0.12-0.32c-0.13-0.34-0.25-0.69-0.37-1.03l-0.15-0.44c-0.13-0.37-0.25-0.74-0.37-1.11        l-0.08-0.25c-0.14-0.44-0.28-0.88-0.41-1.33l-0.12-0.42c-0.1-0.34-0.19-0.68-0.29-1.02l-0.11-0.4        c-0.12-0.45-0.23-0.9-0.34-1.35l-0.07-0.32c-0.09-0.37-0.17-0.74-0.25-1.1l-0.09-0.43c-0.09-0.41-0.17-0.82-0.25-1.24        l-0.04-0.18c-0.09-0.47-0.17-0.93-0.25-1.4l-0.07-0.41c-0.06-0.37-0.11-0.74-0.17-1.11l-0.05-0.37        c-0.07-0.47-0.13-0.95-0.18-1.42l-0.03-0.31c-0.04-0.39-0.08-0.78-0.12-1.17l-0.04-0.42c-0.04-0.45-0.07-0.9-0.1-1.35        l-0.01-0.1c-0.03-0.49-0.06-0.98-0.08-1.47l-0.01-0.41c-0.01-0.39-0.02-0.77-0.03-1.16l-0.01-0.35        c-0.01-0.49-0.01-0.97,0-1.46l0.01-0.31c0.01-0.4,0.02-0.8,0.03-1.2l0.01-0.42c0.02-0.48,0.04-0.96,0.07-1.44l0-0.05        c0.03-0.5,0.07-1,0.11-1.49l0.04-0.4c0.04-0.41,0.08-0.81,0.12-1.21l0.04-0.33c0.06-0.5,0.12-0.99,0.19-1.49l0.05-0.33        c0.06-0.4,0.12-0.81,0.18-1.21l0.07-0.41c0.08-0.5,0.17-1.01,0.27-1.51c0.1-0.55,0.22-1.1,0.33-1.65        c0.02-0.11,0.05-0.22,0.07-0.32l0.05-0.23c0.08-0.36,0.16-0.72,0.25-1.07c0.03-0.13,0.07-0.27,0.1-0.4l0.1-0.4        c0.07-0.27,0.14-0.54,0.21-0.81c0.04-0.16,0.09-0.31,0.13-0.46l0.11-0.37c0.07-0.25,0.14-0.5,0.21-0.75        c0.05-0.16,0.1-0.32,0.15-0.48l0.11-0.35c0.08-0.25,0.15-0.49,0.23-0.74c0.06-0.18,0.12-0.36,0.18-0.53l0.07-0.22        c0.09-0.27,0.18-0.53,0.27-0.8c0.06-0.18,0.13-0.37,0.2-0.56l0.08-0.21c0.09-0.26,0.19-0.51,0.28-0.76        c0.08-0.21,0.16-0.41,0.24-0.62l0.03-0.08c0.11-0.27,0.21-0.54,0.32-0.81c0.09-0.22,0.18-0.45,0.28-0.67        c0.12-0.3,0.24-0.56,0.35-0.83c0.1-0.23,0.2-0.46,0.31-0.69c0.12-0.26,0.24-0.52,0.36-0.79c0.11-0.23,0.21-0.45,0.32-0.68        c0.12-0.26,0.25-0.51,0.37-0.77c0.11-0.23,0.23-0.45,0.34-0.67c0.13-0.25,0.26-0.51,0.39-0.76c0.12-0.22,0.24-0.44,0.36-0.67        c0.13-0.25,0.27-0.5,0.41-0.74c0.12-0.22,0.25-0.44,0.37-0.66c0.14-0.24,0.28-0.49,0.42-0.73c0.13-0.22,0.26-0.43,0.39-0.65        c0.15-0.24,0.29-0.48,0.44-0.72c0.13-0.21,0.26-0.42,0.4-0.63c0.15-0.24,0.31-0.47,0.46-0.71c0.14-0.21,0.27-0.42,0.41-0.62        c0.16-0.23,0.32-0.46,0.48-0.7l0.04-0.06c0.13-0.18,0.25-0.37,0.38-0.55c0.16-0.22,0.32-0.45,0.48-0.67l0.09-0.12        c0.12-0.16,0.24-0.33,0.36-0.49c0.16-0.22,0.33-0.43,0.49-0.65l0.12-0.16c0.11-0.15,0.23-0.3,0.34-0.45        c0.15-0.19,0.3-0.38,0.46-0.57l0.18-0.22c0.12-0.15,0.23-0.29,0.35-0.44c0.16-0.2,0.32-0.39,0.49-0.58l0.2-0.24        c0.11-0.13,0.22-0.26,0.33-0.39c0.16-0.18,0.32-0.36,0.48-0.55l0.25-0.29c0.1-0.12,0.2-0.23,0.31-0.35        c0.17-0.19,0.35-0.38,0.52-0.57l0.26-0.28c0.09-0.1,0.19-0.2,0.28-0.3c0.22-0.23,0.45-0.46,0.67-0.7l0.19-0.2        c0.08-0.08,0.15-0.16,0.23-0.23c0.37-0.37,0.74-0.73,1.11-1.09c0.06-0.05,0.11-0.11,0.17-0.16l0.11-0.1        c0.29-0.27,0.58-0.55,0.87-0.81c0.1-0.09,0.2-0.18,0.3-0.27l0.28-0.25c0.2-0.18,0.39-0.35,0.59-0.53        c0.11-0.1,0.23-0.19,0.34-0.29l0.3-0.26c0.18-0.16,0.37-0.31,0.55-0.47c0.13-0.1,0.25-0.21,0.38-0.31l0.28-0.23        c0.19-0.15,0.37-0.3,0.56-0.45c0.14-0.11,0.28-0.22,0.42-0.33l0.26-0.2c0.18-0.14,0.37-0.29,0.55-0.43        c0.15-0.11,0.29-0.22,0.44-0.33l0.27-0.2c0.18-0.13,0.36-0.27,0.55-0.4c0.16-0.12,0.33-0.23,0.49-0.35l0.11-0.08        c0.24-0.17,0.46-0.32,0.68-0.47c0.18-0.12,0.37-0.25,0.55-0.37l0.07-0.05c0.23-0.15,0.45-0.3,0.68-0.45        c0.21-0.14,0.42-0.27,0.63-0.41c0.23-0.14,0.46-0.29,0.69-0.43c0.22-0.13,0.43-0.26,0.64-0.39c0.23-0.14,0.46-0.28,0.69-0.41        c0.22-0.13,0.43-0.25,0.65-0.38c0.23-0.13,0.47-0.27,0.7-0.4c0.22-0.12,0.44-0.24,0.67-0.36c0.23-0.13,0.47-0.25,0.71-0.38        c0.22-0.12,0.45-0.23,0.67-0.35c0.24-0.12,0.48-0.24,0.72-0.36c0.23-0.11,0.45-0.22,0.68-0.33c0.24-0.12,0.48-0.23,0.73-0.34        c0.23-0.11,0.46-0.21,0.69-0.32c0.24-0.11,0.49-0.22,0.74-0.33c0.23-0.1,0.46-0.2,0.7-0.3c0.25-0.11,0.5-0.21,0.75-0.31        l0.06-0.02c0.22-0.09,0.43-0.18,0.65-0.26c0.25-0.1,0.5-0.2,0.75-0.29l0.08-0.03c0.21-0.08,0.42-0.16,0.63-0.24        c0.23-0.08,0.46-0.17,0.68-0.25l0.21-0.08c0.19-0.07,0.39-0.14,0.59-0.21c0.22-0.08,0.45-0.15,0.68-0.23l0.25-0.08        c0.19-0.06,0.38-0.12,0.57-0.18c0.22-0.07,0.44-0.14,0.66-0.2l0.31-0.09c0.18-0.06,0.36-0.11,0.54-0.16        c0.22-0.06,0.43-0.12,0.65-0.18l0.35-0.1c0.17-0.05,0.35-0.1,0.52-0.14c0.21-0.06,0.43-0.11,0.64-0.16l0.39-0.1        c0.17-0.04,0.33-0.08,0.5-0.12c0.22-0.05,0.43-0.1,0.65-0.15l0.43-0.1c0.16-0.04,0.31-0.07,0.47-0.11        c0.26-0.06,0.53-0.11,0.8-0.16l0.37-0.07c0.13-0.03,0.26-0.05,0.39-0.08c0.51-0.1,1.03-0.19,1.55-0.27        c0.13-0.02,0.27-0.04,0.4-0.06l0.44-0.07c0.24-0.04,0.49-0.08,0.74-0.11c0.16-0.02,0.33-0.04,0.49-0.06l0.44-0.06        c0.22-0.03,0.44-0.06,0.66-0.08c0.17-0.02,0.35-0.04,0.53-0.06l0.41-0.04c0.22-0.02,0.44-0.05,0.66-0.07        c0.19-0.02,0.38-0.03,0.56-0.05l0.39-0.03c0.22-0.02,0.43-0.03,0.65-0.05c0.2-0.01,0.4-0.02,0.6-0.03l0.32-0.02        c0.23-0.01,0.46-0.02,0.68-0.03c0.22-0.01,0.43-0.02,0.65-0.02l0.25-0.01c0.24-0.01,0.48-0.01,0.72-0.02        c0.22,0,0.45,0,0.67-0.01l0.22,0c0.24,0,0.49,0,0.74,0c0.24,0,0.48,0.01,0.71,0.01l0.09,0c0.28,0.01,0.55,0.01,0.83,0.02        c0.27,0.01,0.54,0.02,0.81,0.03c0.27,0.01,0.55,0.02,0.82,0.04c0.27,0.02,0.54,0.03,0.81,0.05c0.27,0.02,0.55,0.04,0.83,0.06        c0.27,0.02,0.55,0.05,0.82,0.07c0.27,0.03,0.55,0.05,0.83,0.08c0.27,0.03,0.55,0.06,0.82,0.09l0.16,0.02        c0.09,0.01,0.18,0.02,0.27,0.03c0.07,0.01,0.15,0.02,0.22,0.03l0.13,0.02c0.35,0.05,0.7,0.1,1.06,0.15        c0.25,0.04,0.49,0.07,0.74,0.11c0.34,0.05,0.68,0.11,1.02,0.17l0.12,0.02c0.21,0.04,0.42,0.07,0.63,0.11l0.09,0.02        c0.06,0.01,0.12,0.02,0.18,0.03c0.17,0.03,0.35,0.07,0.52,0.11l0.47,0.1c0.16,0.03,0.31,0.06,0.47,0.1        c0.46,0.1,0.92,0.2,1.38,0.31l0.31,0.07c32.72,7.86,54.36,38.99,50.33,72.39l-0.04,0.32c-0.06,0.45-0.12,0.89-0.18,1.34        c-0.03,0.2-0.06,0.4-0.09,0.6c-0.06,0.36-0.12,0.72-0.18,1.08c-0.04,0.25-0.09,0.5-0.13,0.75l-0.03,0.17        c-0.01,0.09-0.03,0.17-0.05,0.26c-0.02,0.12-0.05,0.24-0.07,0.35l-0.04,0.2c-0.05,0.26-0.1,0.51-0.16,0.77        c-0.07,0.34-0.15,0.68-0.22,1.02l-0.04,0.17c-0.04,0.18-0.08,0.36-0.13,0.55c-0.09,0.38-0.19,0.75-0.28,1.13l-0.04,0.18        c-0.02,0.1-0.05,0.2-0.07,0.29l-0.15,0.54c-0.12,0.42-0.24,0.84-0.36,1.26l-0.05,0.19c-0.14,0.46-0.28,0.91-0.42,1.36        l-0.12,0.37c-0.15,0.44-0.3,0.89-0.45,1.33l-0.1,0.28c-0.14,0.39-0.28,0.77-0.43,1.16l-0.11,0.3        c-0.17,0.43-0.34,0.86-0.51,1.29l-0.14,0.35c-0.18,0.43-0.36,0.86-0.54,1.28l-0.07,0.17c-0.17,0.39-0.35,0.78-0.54,1.17        l-0.16,0.34c-0.19,0.41-0.39,0.82-0.6,1.22l-0.16,0.32c-0.18,0.36-0.36,0.71-0.55,1.07l-0.13,0.25        c-0.21,0.4-0.43,0.79-0.65,1.19l-0.2,0.35c-0.22,0.39-0.45,0.78-0.68,1.17l-0.15,0.25c-0.2,0.33-0.41,0.67-0.61,1l-0.2,0.31        c-0.24,0.37-0.48,0.74-0.72,1.11l-0.22,0.33c-0.23,0.33-0.45,0.67-0.68,1l-0.16,0.23c-0.24,0.35-0.49,0.69-0.75,1.03        l-0.25,0.33c-0.26,0.35-0.52,0.7-0.79,1.04l-0.23,0.29c-0.23,0.29-0.46,0.58-0.69,0.86l-0.23,0.28        c-0.27,0.33-0.55,0.66-0.83,0.99l-0.27,0.31c-0.29,0.34-0.57,0.66-0.86,0.97l-0.28,0.3c-0.14,0.15-0.27,0.3-0.41,0.45        l-0.49,0.52c-5.21,5.55-9.68,9.17-13.61,12.36c-7.95,6.44-13.19,10.7-17.26,25.46C858.65,602.39,855.86,604.43,852.83,604.43z         M799.09,587.59c-0.15,1.51,0.9,2.92,2.4,3.2l0.13,0.03l0.13,0.04c16.33,5.5,33.24,8.72,50.28,9.57l0.13,0.01l0.13,0.02        c1.51,0.29,3.01-0.65,3.41-2.12c4.4-15.96,10.35-20.78,18.57-27.46c3.84-3.12,8.19-6.65,13.23-12.01l0.47-0.5        c0.13-0.14,0.26-0.28,0.39-0.42l0.26-0.29c0.27-0.3,0.54-0.6,0.8-0.91l0.26-0.31c0.26-0.31,0.53-0.62,0.78-0.94l0.21-0.26        c0.22-0.27,0.43-0.54,0.65-0.81l0.21-0.27c0.25-0.32,0.5-0.65,0.74-0.98l0.23-0.32c0.24-0.32,0.47-0.64,0.7-0.97l0.15-0.21        c0.22-0.31,0.43-0.62,0.64-0.94l0.21-0.31c0.23-0.34,0.45-0.69,0.68-1.04l0.18-0.29c0.2-0.31,0.39-0.62,0.58-0.94l0.14-0.23        c0.21-0.36,0.43-0.73,0.64-1.1l0.18-0.33c0.21-0.37,0.41-0.74,0.61-1.12l0.12-0.23c0.18-0.33,0.35-0.67,0.52-1.01l0.15-0.29        c0.19-0.39,0.38-0.77,0.56-1.15l0.15-0.32c0.17-0.37,0.34-0.74,0.5-1.11l0.07-0.15c0.18-0.4,0.35-0.81,0.51-1.21l0.14-0.33        c0.16-0.4,0.32-0.8,0.48-1.21l0.11-0.28c0.14-0.36,0.27-0.72,0.4-1.09l0.1-0.27c0.14-0.41,0.28-0.83,0.42-1.24l0.11-0.35        c0.14-0.42,0.27-0.85,0.4-1.28l0.05-0.18c0.12-0.39,0.23-0.79,0.34-1.18l0.14-0.5c0.02-0.08,0.04-0.15,0.06-0.22l0.06-0.22        c0.09-0.35,0.18-0.71,0.27-1.06c0.04-0.17,0.08-0.33,0.12-0.5l0.04-0.17c0.07-0.32,0.14-0.64,0.21-0.96        c0.05-0.24,0.1-0.49,0.15-0.73l0.05-0.24c0.02-0.09,0.04-0.19,0.06-0.28c0.01-0.06,0.02-0.13,0.03-0.19l0.04-0.22        c0.04-0.23,0.08-0.47,0.12-0.7c0.06-0.34,0.11-0.68,0.17-1.02c0.03-0.19,0.06-0.38,0.09-0.57c0.06-0.42,0.12-0.84,0.17-1.26        l0.04-0.3c3.79-31.44-16.57-60.72-47.36-68.12l-0.29-0.07c-0.43-0.1-0.86-0.2-1.3-0.29c-0.14-0.03-0.28-0.06-0.42-0.09        l-0.49-0.1c-0.15-0.03-0.31-0.06-0.46-0.09l-0.25-0.04c-0.2-0.04-0.39-0.07-0.59-0.1l-0.12-0.02        c-0.32-0.06-0.64-0.11-0.96-0.16c-0.23-0.04-0.46-0.07-0.7-0.11c-0.33-0.05-0.66-0.1-0.99-0.14l-0.33-0.05        c-0.07-0.01-0.13-0.02-0.2-0.02l-0.2-0.02c-0.26-0.03-0.51-0.06-0.77-0.09c-0.26-0.03-0.52-0.05-0.78-0.08        c-0.26-0.02-0.51-0.05-0.77-0.07c-0.26-0.02-0.52-0.04-0.78-0.06c-0.26-0.02-0.51-0.04-0.77-0.05        c-0.26-0.01-0.52-0.03-0.78-0.04c-0.26-0.01-0.51-0.02-0.76-0.03c-0.26-0.01-0.52-0.01-0.78-0.02l-0.09,0        c-0.22,0-0.45-0.01-0.67-0.01c-0.23,0-0.46,0-0.69,0l-0.22,0c-0.21,0-0.41,0-0.62,0.01c-0.22,0-0.45,0.01-0.67,0.02        l-0.25,0.01c-0.2,0.01-0.4,0.01-0.6,0.02c-0.21,0.01-0.42,0.02-0.63,0.03l-0.33,0.02c-0.18,0.01-0.37,0.02-0.55,0.03        c-0.2,0.01-0.4,0.03-0.59,0.04l-0.4,0.03c-0.17,0.01-0.34,0.03-0.51,0.04c-0.2,0.02-0.4,0.04-0.6,0.06l-0.43,0.04        c-0.16,0.02-0.31,0.03-0.47,0.05c-0.2,0.02-0.4,0.05-0.6,0.08l-0.46,0.06c-0.14,0.02-0.29,0.04-0.43,0.06        c-0.23,0.03-0.45,0.07-0.68,0.1l-0.46,0.07c-0.11,0.02-0.23,0.03-0.34,0.05c-0.49,0.08-0.97,0.17-1.46,0.26        c-0.11,0.02-0.22,0.04-0.33,0.07l-0.4,0.08c-0.25,0.05-0.49,0.1-0.74,0.15c-0.14,0.03-0.27,0.06-0.41,0.09l-0.45,0.1        c-0.2,0.04-0.4,0.09-0.59,0.14c-0.15,0.04-0.3,0.07-0.44,0.11l-0.41,0.1c-0.2,0.05-0.39,0.1-0.59,0.15        c-0.16,0.04-0.31,0.09-0.47,0.13l-0.36,0.1c-0.2,0.06-0.4,0.11-0.6,0.17c-0.17,0.05-0.33,0.1-0.5,0.15l-0.31,0.09        c-0.2,0.06-0.41,0.12-0.61,0.19c-0.17,0.06-0.35,0.11-0.52,0.17l-0.26,0.08c-0.21,0.07-0.42,0.14-0.63,0.21        c-0.18,0.06-0.36,0.13-0.54,0.19l-0.21,0.08c-0.21,0.08-0.43,0.15-0.64,0.23c-0.2,0.07-0.4,0.15-0.59,0.22l-0.08,0.03        c-0.24,0.09-0.47,0.18-0.71,0.28c-0.2,0.08-0.4,0.16-0.61,0.25l-0.06,0.02c-0.23,0.1-0.47,0.19-0.7,0.29        c-0.22,0.09-0.44,0.19-0.66,0.28c-0.23,0.1-0.46,0.2-0.69,0.31c-0.22,0.1-0.43,0.2-0.65,0.3c-0.23,0.11-0.46,0.21-0.69,0.32        c-0.21,0.1-0.43,0.21-0.64,0.31c-0.23,0.11-0.45,0.23-0.68,0.34c-0.21,0.11-0.42,0.22-0.63,0.33        c-0.22,0.12-0.45,0.24-0.67,0.36c-0.21,0.11-0.42,0.23-0.63,0.34c-0.22,0.12-0.44,0.25-0.66,0.37        c-0.21,0.12-0.41,0.24-0.61,0.36c-0.22,0.13-0.44,0.26-0.66,0.39c-0.2,0.12-0.41,0.24-0.61,0.37        c-0.22,0.13-0.43,0.27-0.65,0.41c-0.2,0.13-0.4,0.25-0.59,0.38c-0.21,0.14-0.43,0.28-0.64,0.42l-0.07,0.05        c-0.17,0.11-0.34,0.23-0.51,0.35c-0.21,0.14-0.41,0.28-0.61,0.43l-0.14,0.1c-0.15,0.11-0.3,0.21-0.45,0.32        c-0.17,0.12-0.34,0.25-0.51,0.37l-0.27,0.2c-0.13,0.1-0.27,0.2-0.4,0.3c-0.17,0.13-0.34,0.26-0.51,0.39l-0.27,0.21        c-0.13,0.1-0.25,0.2-0.38,0.3c-0.17,0.14-0.35,0.28-0.52,0.42l-0.29,0.24c-0.11,0.09-0.22,0.18-0.34,0.27        c-0.17,0.14-0.34,0.29-0.51,0.43l-0.31,0.27c-0.1,0.08-0.2,0.17-0.3,0.25c-0.18,0.16-0.37,0.32-0.55,0.49l-0.3,0.26        c-0.09,0.08-0.17,0.15-0.25,0.23c-0.28,0.25-0.55,0.51-0.82,0.76l-0.26,0.24c-0.35,0.34-0.7,0.68-1.05,1.03        c-0.06,0.06-0.12,0.13-0.19,0.19l-0.21,0.22c-0.21,0.22-0.42,0.43-0.63,0.65c-0.08,0.09-0.16,0.17-0.24,0.26l-0.27,0.3        c-0.16,0.17-0.32,0.35-0.48,0.52c-0.09,0.1-0.18,0.21-0.27,0.31l-0.26,0.3c-0.15,0.17-0.3,0.33-0.44,0.5        c-0.1,0.11-0.2,0.23-0.29,0.35l-0.21,0.25c-0.15,0.18-0.3,0.36-0.45,0.54c-0.11,0.13-0.21,0.26-0.32,0.4l-0.18,0.23        c-0.14,0.18-0.28,0.35-0.42,0.53c-0.11,0.13-0.21,0.27-0.31,0.41l-0.13,0.16c-0.15,0.2-0.31,0.4-0.46,0.61        c-0.11,0.15-0.22,0.3-0.33,0.45l-0.08,0.11c-0.16,0.23-0.32,0.44-0.47,0.65c-0.12,0.17-0.24,0.34-0.36,0.51l-0.04,0.06        c-0.15,0.22-0.3,0.43-0.45,0.65c-0.13,0.2-0.26,0.39-0.39,0.59c-0.14,0.22-0.29,0.44-0.43,0.67c-0.12,0.2-0.25,0.39-0.37,0.59        c-0.14,0.22-0.28,0.45-0.42,0.68c-0.12,0.2-0.24,0.4-0.36,0.61c-0.13,0.23-0.27,0.45-0.4,0.69c-0.12,0.21-0.23,0.41-0.35,0.62        c-0.13,0.23-0.26,0.46-0.38,0.7c-0.11,0.21-0.22,0.42-0.33,0.63c-0.12,0.24-0.25,0.47-0.37,0.71        c-0.11,0.21-0.21,0.42-0.32,0.63c-0.12,0.24-0.24,0.48-0.35,0.72c-0.1,0.21-0.2,0.43-0.3,0.64c-0.11,0.25-0.23,0.49-0.34,0.74        c-0.1,0.22-0.19,0.43-0.29,0.65c-0.11,0.25-0.21,0.5-0.32,0.75c-0.1,0.24-0.19,0.44-0.27,0.65c-0.1,0.25-0.2,0.51-0.3,0.77        L784,493.2c-0.08,0.19-0.15,0.38-0.22,0.58c-0.09,0.24-0.18,0.48-0.26,0.72l-0.08,0.22c-0.06,0.17-0.12,0.34-0.18,0.51        c-0.09,0.25-0.17,0.5-0.25,0.75l-0.08,0.23c-0.05,0.16-0.11,0.32-0.16,0.48c-0.07,0.23-0.14,0.45-0.21,0.68l-0.11,0.36        c-0.04,0.14-0.09,0.29-0.13,0.43c-0.07,0.23-0.13,0.46-0.2,0.7l-0.11,0.39c-0.04,0.14-0.08,0.27-0.12,0.41        c-0.07,0.25-0.13,0.5-0.19,0.75l-0.11,0.42c-0.03,0.11-0.06,0.23-0.09,0.34c-0.08,0.33-0.16,0.67-0.23,1l-0.06,0.27        c-0.02,0.09-0.04,0.17-0.06,0.26c-0.11,0.51-0.22,1.03-0.32,1.55c-0.09,0.48-0.17,0.95-0.25,1.42l-0.06,0.39        c-0.06,0.38-0.12,0.77-0.17,1.15l-0.04,0.31c-0.06,0.47-0.12,0.93-0.18,1.4l-0.03,0.31c-0.04,0.38-0.08,0.76-0.11,1.13        l-0.03,0.38c-0.04,0.47-0.08,0.94-0.1,1.41l0,0.05c-0.03,0.45-0.05,0.9-0.07,1.36l-0.01,0.39c-0.01,0.38-0.02,0.76-0.03,1.13        l0,0.29c0,0.46,0,0.92,0,1.38l0.01,0.33c0.01,0.37,0.02,0.74,0.03,1.1l0.01,0.38c0.02,0.46,0.04,0.92,0.07,1.37l0.01,0.1        c0.03,0.43,0.06,0.85,0.1,1.27l0.04,0.4c0.03,0.36,0.07,0.73,0.11,1.1l0.03,0.29c0.05,0.45,0.11,0.89,0.17,1.34l0.05,0.35        c0.05,0.35,0.1,0.7,0.16,1.04l0.06,0.39c0.07,0.44,0.15,0.88,0.23,1.32l0.03,0.17c0.08,0.39,0.15,0.78,0.24,1.17l0.09,0.41        c0.08,0.35,0.16,0.7,0.24,1.04l0.07,0.29c0.1,0.43,0.21,0.85,0.32,1.28l0.1,0.37c0.09,0.32,0.18,0.64,0.27,0.96l0.11,0.39        c0.12,0.42,0.25,0.84,0.38,1.25l0.08,0.23c0.11,0.35,0.23,0.7,0.35,1.04l0.14,0.42c0.11,0.32,0.23,0.64,0.35,0.97l0.11,0.31        c0.13,0.35,0.27,0.7,0.41,1.05l0.15,0.37c2.71,6.78,5.42,11.62,7.8,15.9c5.14,9.21,8.85,15.86,7.07,32.41L799.09,587.59z" class="color9bd svgShape"></path><path fill="#dd99dc" d="M837.04,601.32l-3.84-0.74c0.03-0.15,3.01-15.66,7.35-31.86c2.55-9.55,5.08-17.48,7.49-23.58        c0.12-0.31,0.24-0.61,0.36-0.91c-4.37-0.33-9.73-1.33-16.3-3.34c-1.7-0.52-3.29-1.06-4.75-1.61c0.1,2.7-0.03,5.65-0.38,8.83        c-4.58,41.65-6.3,49.86-6.37,50.19l-3.83-0.82c0.02-0.08,1.77-8.56,6.31-49.79c0.43-3.89,0.47-7.23,0.24-10.06        c-10.04-4.58-13.03-9.67-12.15-13.35c0.62-2.58,3.18-4.09,6.08-3.58c3.18,0.55,6.03,3.23,7.83,7.35        c0.88,2.01,1.5,4.31,1.88,6.89c1.83,0.75,3.92,1.5,6.28,2.23c6.81,2.09,12.38,3.06,16.81,3.26c2.44-5.24,4.79-8.56,7.13-10.08        c3.94-2.56,7.19-1.7,8.93-0.05c2.07,1.98,2.37,5.17,0.75,7.95c-1.03,1.75-4.48,5.86-14.28,6.11        c-2.31,5.43-5.08,13.47-8.26,25.36C840.04,585.78,837.07,601.16,837.04,601.32z M862.07,532.63c-0.79,0-1.74,0.33-2.74,0.98        c-1.09,0.71-2.73,2.47-4.88,6.73c4.96-0.43,7.88-2.09,9.05-4.08c0.8-1.36,0.54-2.56-0.07-3.14        C863.08,532.79,862.61,532.63,862.07,532.63z M816.14,524.49c-0.53,0-1.04,0.17-1.16,0.68c-0.32,1.35,1.45,4.42,7.6,7.7        c-1.31-5.41-3.85-7.96-5.99-8.34C816.45,524.51,816.29,524.49,816.14,524.49z" class="color9bd svgShape"></path><rect width="3.91" height="54.28" x="822.94" y="579.51" fill="#dd99dc" transform="rotate(-72.097 824.853 606.631)" class="color9bd svgShape"></rect><rect width="3.91" height="54.28" x="821.9" y="584.96" fill="#dd99dc" transform="rotate(-72.097 823.815 612.08)" class="color9bd svgShape"></rect><rect width="3.91" height="54.28" x="820.86" y="590.4" fill="#dd99dc" transform="rotate(-72.097 822.778 617.528)" class="color9bd svgShape"></rect><rect width="3.91" height="51.73" x="818.61" y="596.74" fill="#dd99dc" transform="rotate(-72.097 820.53 622.584)" class="color9bd svgShape"></rect><rect width="3.91" height="20.76" x="924.67" y="521.64" fill="#dd99dc" transform="rotate(-79.216 926.704 532.036)" class="color9bd svgShape"></rect><rect width="20.76" height="3.91" x="912.97" y="485.68" fill="#dd99dc" transform="rotate(-19.219 923.234 487.594)" class="color9bd svgShape"></rect><rect width="20.76" height="3.91" x="887.94" y="448.88" fill="#dd99dc" transform="rotate(-49.217 898.334 450.825)" class="color9bd svgShape"></rect><rect width="20.76" height="3.91" x="847.87" y="429.53" fill="#dd99dc" transform="rotate(-79.217 858.225 431.45)" class="color9bd svgShape"></rect><rect width="3.91" height="20.76" x="811.91" y="424.38" fill="#dd99dc" transform="rotate(-19.219 813.797 434.728)" class="color9bd svgShape"></rect><rect width="3.91" height="20.76" x="775.11" y="449.4" fill="#dd99dc" transform="rotate(-49.217 777.097 459.775)" class="color9bd svgShape"></rect><rect width="3.91" height="20.76" x="755.75" y="489.48" fill="#dd99dc" transform="rotate(-79.216 757.772 499.874)" class="color9bd svgShape"></rect><g fill="#000000" class="color000 svgShape"><path fill="#dd99dc" d="M544.01 416.5l-65.76-12.98-31.69-110.48 93.49 11.79L544.01 416.5zM481.35 400.14l58.58 11.56-3.67-103.41-84.3-10.63L481.35 400.14zM552.01 416.18l-4.88-111.63 92.26-19.15-22.85 112.64L552.01 416.18zM551.18 307.7l4.52 103.37 57.48-16.16 21.19-104.48L551.18 307.7z" class="color9bd svgShape"></path><path fill="#dd99dc" d="M540.53,416.12l-4.41-111.43l14.91-0.59l4.41,111.43L540.53,416.12z M540.19,308.44l4.1,103.61l7.09-0.28      l-4.1-103.61L540.19,308.44z" class="color9bd svgShape"></path><path fill="#dd99dc" d="M541.7,306.42l-0.32-8.15l0.85-0.61c0.28-0.2,7.03-5.06,20.11-9.55c11.98-4.12,31.8-8.69,58.16-7.08      l0.53,0.03l8.27,5.58l-2.19,3.24l-7.39-4.98c-43.93-2.56-69.5,12.24-74.35,15.35l0.24,6.01L541.7,306.42z" class="color9bd svgShape"></path><path fill="#dd99dc" d="M541.7,306.42l-0.24-6.01c-2.26-1.21-8.77-4.41-19.04-7.03c-11.81-3.02-31.14-5.87-56.3-2.39l-6.97,5.55      l-2.44-3.06l7.8-6.21l0.53-0.07c26.15-3.69,46.27-0.7,58.54,2.45c13.39,3.45,20.51,7.75,20.8,7.93l0.89,0.55l0.32,8.15      L541.7,306.42z" class="color9bd svgShape"></path><path fill="#dd99dc" d="M545.26,299.78l-3.77-1.06c0.21-0.77,5.58-18.78,41.38-22.81c33.67-3.78,43.32-10,43.41-10.07l5.68-3.79      l-2.8,6.21l-7.01,15.52l-3.57-1.61l4.83-10.69c-5.98,2.32-18.03,5.83-40.11,8.31c-17.29,1.94-26.73,7.31-31.61,11.46      C546.49,295.71,545.27,299.74,545.26,299.78z" class="color9bd svgShape"></path><rect width="11.17" height="3.91" x="538.46" y="316.06" fill="#dd99dc" transform="rotate(-2.292 544.309 318.518)" class="color9bd svgShape"></rect><rect width="11.17" height="3.91" x="538.82" y="325.18" fill="#dd99dc" transform="rotate(-2.292 544.665 327.654)" class="color9bd svgShape"></rect><rect width="11.17" height="3.91" x="541.6" y="398.54" fill="#dd99dc" transform="rotate(-1.862 547.645 400.818)" class="color9bd svgShape"></rect><rect width="11.17" height="3.91" x="541.3" y="389.4" fill="#dd99dc" transform="rotate(-1.868 546.528 391.113)" class="color9bd svgShape"></rect><path fill="#dd99dc" d="M547.66 302.09c1.15-.87 2.38-1.61 3.63-2.33 1.25-.71 2.53-1.36 3.83-1.97 2.6-1.22 5.28-2.28 8-3.21l2.05-.66c.68-.22 1.38-.41 2.07-.6 1.38-.39 2.77-.75 4.17-1.06 1.39-.34 2.81-.58 4.22-.85 1.42-.23 2.84-.43 4.26-.58-1.36.47-2.73.86-4.1 1.28l-2.04.63c-.68.21-1.37.4-2.04.62-.68.22-1.36.43-2.04.63-.68.2-1.35.44-2.03.65-1.36.42-2.7.88-4.05 1.33-2.69.92-5.36 1.85-8.02 2.87C552.92 299.87 550.27 300.91 547.66 302.09zM571.65 296.92c3.51-1.72 7.21-3.02 10.94-4.17 3.74-1.14 7.53-2.09 11.37-2.87.96-.19 1.92-.36 2.88-.54l1.44-.26 1.45-.22 2.9-.42c.97-.12 1.94-.23 2.91-.33 1.94-.24 3.89-.34 5.84-.48.49-.03.97-.06 1.46-.07l1.46-.04c.98-.02 1.95-.04 2.93-.04-1.93.33-3.86.56-5.78.86l-2.88.44c-.48.08-.96.13-1.44.22l-1.44.24c-.96.16-1.91.32-2.87.46l-2.86.52-1.43.25-1.43.28c-.95.18-1.91.36-2.85.55-3.8.77-7.58 1.6-11.35 2.53C579.13 294.78 575.38 295.77 571.65 296.92zM542.2 301.38c-2.99-.71-5.94-1.48-8.89-2.27l-8.84-2.36-8.84-2.33-8.89-2.24c3.07.16 6.12.58 9.14 1.13 3.02.56 6.01 1.23 8.97 2.03 2.96.79 5.9 1.69 8.8 2.68C536.54 299.02 539.41 300.1 542.2 301.38zM526.19 301.02c-4.24-.67-8.47-1.4-12.68-2.14l-6.33-1.1-3.16-.56-3.16-.54c-2.11-.36-4.22-.74-6.33-1.07-1.05-.17-2.11-.37-3.16-.53-1.06-.16-2.11-.33-3.17-.51-4.23-.66-8.46-1.28-12.72-1.86 4.3-.02 8.59.28 12.87.73 2.14.23 4.27.5 6.39.8 1.06.15 2.13.31 3.18.48l3.18.51c2.11.39 4.23.76 6.33 1.18 1.05.21 2.1.43 3.15.65 1.05.22 2.1.45 3.14.69C517.91 298.71 522.08 299.76 526.19 301.02z" class="color9bd svgShape"></path></g><g fill="#000000" class="color000 svgShape"><path fill="#dd99dc" d="M429.2,280.14c-1.64-9.19-6.76-17.19-14.42-22.53c-7.66-5.34-16.94-7.37-26.13-5.73l-0.69-3.85       c10.22-1.82,20.54,0.44,29.05,6.38c8.52,5.94,14.21,14.83,16.03,25.05L429.2,280.14z" class="color9bd svgShape"></path><path fill="#dd99dc" d="M417.44 283.32c-2.31-12.96-14.74-21.62-27.7-19.31l-.69-3.85c15.08-2.69 29.55 7.39 32.24 22.47L417.44 283.32zM405.68 286.51c-1.24-6.95-7.9-11.6-14.86-10.36l-.69-3.85c9.08-1.62 17.78 4.45 19.4 13.52L405.68 286.51zM398.53 289.42c-1.53 2.2-4.56 2.74-6.77 1.21s-2.74-4.56-1.21-6.76c1.53-2.2 4.56-2.74 6.76-1.21C399.53 284.19 400.07 287.22 398.53 289.42z" class="color9bd svgShape"></path></g><g fill="#000000" class="color000 svgShape"><path fill="#a500a2" d="M369.03,767.33c-5.7,0-10.34,4.66-10.34,10.34c0,2.83,1.15,5.43,3.02,7.3c1.87,1.87,4.47,3.04,7.32,3.04      H570.1c5.7,0,10.34-4.66,10.34-10.34c0-2.83-1.17-5.43-3.04-7.3c-1.87-1.87-4.45-3.04-7.3-3.04h-5.39h-13.77H443.03H369.03z" class="color86b1f2 svgShape"></path><path fill="#5946b6" d="M587.13,767.33H570.1c2.85,0,5.43,1.17,7.3,3.04c1.87,1.87,3.04,4.47,3.04,7.3      c0,5.68-4.64,10.34-10.34,10.34h17.03c2.85,0,5.43-1.17,7.3-3.04s3.04-4.47,3.04-7.3C597.48,771.99,592.83,767.33,587.13,767.33      z" class="color466eb6 svgShape"></path><polygon fill="#443589" points="534.41 735.68 550.95 767.33 564.72 767.33 548.16 735.68" class="color355389 svgShape"></polygon><polygon fill="#5946b6" points="426.5 735.68 443.03 767.33 550.95 767.33 534.41 735.68" class="color466eb6 svgShape"></polygon><path fill="#a500a2" d="M250.85,367.7h457.34c23.31,0,42.21,18.9,42.21,42.23v284.92c0,23.31-18.9,42.23-42.21,42.23H560.62h-13.75     H438.96H250.85c-23.31,0-42.21-18.92-42.21-42.23V409.93C208.64,386.6,227.54,367.7,250.85,367.7z M250.87,688.83h457.32     c16.24,0,29.44-13.22,29.44-29.46V409.93c0-16.24-13.2-29.46-29.44-29.46H250.87c-16.24,0-29.46,13.22-29.46,29.46v249.43     C221.41,675.61,234.63,688.83,250.87,688.83z" class="color86b1f2 svgShape"></path><path fill="#efefef" d="M737.62,409.93v249.43c0,11.77-6.92,21.95-16.92,26.65c-3.81,1.81-8.05,2.81-12.52,2.81H250.87     c-16.24,0-29.46-13.22-29.46-29.46V409.93c0-14.62,10.72-26.8,24.71-29.07c1.55-0.25,3.14-0.39,4.75-0.39h457.32     c1.62,0,3.21,0.13,4.75,0.39C726.92,383.13,737.62,395.31,737.62,409.93z" class="colorefefef svgShape"></path><defs><path id="a" d="M737.62,409.93v249.43c0,11.77-6.92,21.94-16.92,26.65c-3.81,1.81-8.05,2.81-12.52,2.81H250.86       c-16.24,0-29.46-13.22-29.46-29.46V409.93c0-16.24,13.22-29.46,29.46-29.46h457.32C724.43,380.47,737.62,393.69,737.62,409.93z       " fill="#000000" class="color000 svgShape"></path></defs><clipPath id="b"><use overflow="visible" xlink:href="#a"></use></clipPath><g clip-path="url(#b)" fill="#000000" class="color000 svgShape"><path fill="#a500a2" d="M477.63,473v124.17c0,1.91-1.56,3.47-3.47,3.47H249.78c-1.91,0-3.47-1.56-3.47-3.47V473H477.63z" class="color86b1f2 svgShape"></path><path fill="#5946b6" d="M477.63,457.32V473H246.31v-15.68c0-5.84,4.78-10.63,10.63-10.63H467         C472.85,446.69,477.63,451.47,477.63,457.32z" class="color466eb6 svgShape"></path><path fill="#ff206d" d="M269.39,459.29c0,1.7-1.38,3.08-3.08,3.08c-1.7,0-3.08-1.38-3.08-3.08c0-1.7,1.38-3.08,3.08-3.08       C268.01,456.21,269.39,457.59,269.39,459.29z" class="colorfe875e svgShape"></path><path fill="#13285b" d="M374.33 571.83h-98.97c-.48 0-.87-.39-.87-.87 0-.48.39-.87.87-.87h98.97c.48 0 .87.39.87.87C375.2 571.44 374.81 571.83 374.33 571.83zM374.33 580.12h-111.1c-.48 0-.87-.39-.87-.87 0-.48.39-.87.87-.87h111.1c.48 0 .87.39.87.87C375.2 579.73 374.81 580.12 374.33 580.12zM374.33 587.91h-111.1c-.48 0-.87-.39-.87-.87 0-.48.39-.87.87-.87h111.1c.48 0 .87.39.87.87C375.2 587.52 374.81 587.91 374.33 587.91zM459.93 495.2h-37.59c-.48 0-.87-.39-.87-.87 0-.48.39-.87.87-.87h37.59c.48 0 .87.39.87.87C460.8 494.82 460.41 495.2 459.93 495.2zM459.93 503.5h-42.2c-.48 0-.87-.39-.87-.87 0-.48.39-.87.87-.87h42.2c.48 0 .87.39.87.87C460.8 503.11 460.41 503.5 459.93 503.5zM459.93 511.28h-42.2c-.48 0-.87-.39-.87-.87 0-.48.39-.87.87-.87h42.2c.48 0 .87.39.87.87C460.8 510.89 460.41 511.28 459.93 511.28zM459.93 533.64h-37.59c-.48 0-.87-.39-.87-.87s.39-.87.87-.87h37.59c.48 0 .87.39.87.87S460.41 533.64 459.93 533.64zM459.93 541.94h-42.2c-.48 0-.87-.39-.87-.87 0-.48.39-.87.87-.87h42.2c.48 0 .87.39.87.87C460.8 541.55 460.41 541.94 459.93 541.94zM459.93 549.72h-42.2c-.48 0-.87-.39-.87-.87 0-.48.39-.87.87-.87h42.2c.48 0 .87.39.87.87C460.8 549.33 460.41 549.72 459.93 549.72zM459.93 572.08h-37.59c-.48 0-.87-.39-.87-.87 0-.48.39-.87.87-.87h37.59c.48 0 .87.39.87.87C460.8 571.7 460.41 572.08 459.93 572.08zM459.93 580.38h-42.2c-.48 0-.87-.39-.87-.87 0-.48.39-.87.87-.87h42.2c.48 0 .87.39.87.87C460.8 579.99 460.41 580.38 459.93 580.38zM459.93 588.16h-42.2c-.48 0-.87-.39-.87-.87 0-.48.39-.87.87-.87h42.2c.48 0 .87.39.87.87C460.8 587.77 460.41 588.16 459.93 588.16z" class="color13375b svgShape"></path><path fill="#fe5e95" d="M285.29,459.29c0,1.7-1.38,3.08-3.08,3.08c-1.7,0-3.08-1.38-3.08-3.08c0-1.7,1.38-3.08,3.08-3.08       C283.91,456.21,285.29,457.59,285.29,459.29z" class="colorfec65e svgShape"></path><circle cx="297.31" cy="459.29" r="3.08" fill="#d996ad" class="color96d9c9 svgShape"></circle><path fill="#767fad" d="M366.7,563.13h-95.85c-4.21,0-7.63-3.42-7.63-7.63v-56.99c0-4.21,3.42-7.63,7.63-7.63h95.85       c4.21,0,7.63,3.42,7.63,7.63v56.99C374.33,559.71,370.92,563.13,366.7,563.13z" class="colorb6d7ff svgShape"></path><rect width="22.98" height="22.98" x="388.06" y="490.88" fill="#767fad" class="colorb6d7ff svgShape"></rect><rect width="22.98" height="22.98" x="388.06" y="529.32" fill="#767fad" class="colorb6d7ff svgShape"></rect><rect width="22.98" height="22.98" x="388.06" y="567.76" fill="#767fad" class="colorb6d7ff svgShape"></rect><path fill="#5946b6" d="M354.16 517.22c0 2.58-2.09 4.67-4.67 4.67s-4.67-2.09-4.67-4.67c0-2.58 2.09-4.67 4.67-4.67S354.16 514.64 354.16 517.22zM275.44 546.1l26.44-26.44c1.75-1.75 4.58-1.75 6.33 0l13.02 13.02c1.75 1.75 4.58 1.75 6.33 0l6.08-6.08c1.75-1.75 4.58-1.75 6.33 0l19.43 19.43L275.44 546.1z" class="color466eb6 svgShape"></path></g><g clip-path="url(#b)" fill="#000000" class="color000 svgShape"><path fill="#ffd7d7" d="M414.6,587.67l4.9,4.42c6.4,5.77,16.35,5.26,22.12-1.14v0c5.77-6.4,5.26-16.35-1.14-22.12l-4.9-4.42         c-6.4-5.77-16.35-5.26-22.12,1.14v0C407.69,571.95,408.2,581.9,414.6,587.67z" class="colorfae0b2 svgShape"></path><path fill="#ffd7d7" d="M441.23,575.59L441.23,575.59c2.94-0.49,5.55,5.15,5.06,2.21l-2.51-19.91         c-0.49-2.94-3.29-4.94-6.23-4.45l0,0c-2.94,0.49-4.94,3.29-4.45,6.23l1.91,11.47C435.49,574.07,438.29,576.08,441.23,575.59z         " class="colorfae0b2 svgShape"></path><path fill="#ffd7d7" d="M434.11,570.38L434.11,570.38c1.99-2.21,1.82-5.65-0.39-7.65l-8.64-7.79         c-2.21-1.99-5.65-1.82-7.65,0.39l0,0c-1.99,2.21-1.82,5.65,0.39,7.65l8.64,7.79C428.68,572.77,432.12,572.6,434.11,570.38z" class="colorfae0b2 svgShape"></path><path fill="#ffd7d7" d="M424.15,570.47L424.15,570.47c1.99-2.21,1.82-5.65-0.39-7.65l-8.64-7.79         c-2.21-1.99-5.65-1.82-7.65,0.39l0,0c-1.99,2.21-1.82,5.65,0.39,7.65l8.64,7.79C418.71,572.86,422.15,572.68,424.15,570.47z" class="colorfae0b2 svgShape"></path><path fill="#ffd7d7" d="M421.68,577.36L421.68,577.36c1.99-2.21,1.82-5.65-0.39-7.65l-8.64-7.79         c-2.21-1.99-5.65-1.82-7.65,0.39l0,0c-1.99,2.21-1.82,5.65,0.39,7.65l8.64,7.79C416.24,579.74,419.68,579.57,421.68,577.36z" class="colorfae0b2 svgShape"></path><path fill="#ffd7d7" d="M422.1,586.81L422.1,586.81c1.99-2.21,1.82-5.65-0.39-7.65l-8.64-7.79c-2.21-1.99-5.65-1.82-7.65,0.39         l0,0c-1.99,2.21-1.82,5.65,0.39,7.65l8.64,7.79C416.66,589.2,420.1,589.03,422.1,586.81z" class="colorfae0b2 svgShape"></path><path fill="#4a3c8f" d="M519.03,574.16c23.5-32.57,58.89-38.8,63.23-39.45c-30.8,5.36-54.42,31.62-55.69,63.62        c-0.05,0.91-0.07,1.83-0.07,2.75v40.28c-51.77,29.05-99.73-41.01-99.73-41.01l23.92-22.21        C470.06,599.22,493.98,608.9,519.03,574.16z" class="color3c8f7c svgShape"></path><path fill="#6350bf" d="M715.1,654.8c0,41.92-10.47,76.06-43.1,107.51c-1.12-0.33-4.45-1.07-12.86-9.19        c-5.29-5.09-8.93-16.65-8.93-16.65s1.71-2.81,4.13-7.6l-11.83,0.01l-73.29,0.07L527.49,729c-3.5,0.01-6.28-2.94-6.05-6.44        l5.07-81.2v-40.28c0-0.92,0.02-1.84,0.07-2.75c1.27-32,24.89-58.26,55.69-63.62c0.15-0.02,0.29-0.04,0.44-0.07        c3.63-0.61,7.36-0.92,11.16-0.92h23.86c3.79,0,7.51,0.31,11.13,0.92c4.96,0.82,9.74,2.19,14.28,4.04        C682.07,552.51,715.09,600.98,715.1,654.8z" class="color50bfa5 svgShape"></path><path fill="#f77fa8" d="M632.28,729.01h-73.3v-0.06l12.16-181.42c0,0,8.66-13.8,12.47-13.8h23.86c3.79,0,7.51,0.31,11.13,0.92        l0.93,13.25l12.74,180.98L632.28,729.01z" class="colorf7cc7f svgShape"></path><path fill="#6350bf" d="M571.81 536.97l-12.84 214.55-40.27-8.6 15.02-106.01c0 0 5.55-33.89 10.62-52.7C549.42 565.41 571.81 536.97 571.81 536.97zM618.6 534.65l13.68 216.76 48.12-5.42c0 0 7.14-35.05 13.83-67.95 6.69-32.9.6-90.35-16.1-106.43C661.43 555.53 618.6 534.65 618.6 534.65z" class="color50bfa5 svgShape"></path><path fill="#4a3c8f" d="M639.43,599.97c0,0,7.62,16.87,13.31,43.07c5.7,26.2-2.52,93.45-2.52,93.45l4.14-8.03        c0,0,18.72-38.43,15.96-62.06C667.55,642.75,658.29,621.82,639.43,599.97z" class="color3c8f7c svgShape"></path><rect width="1.12" height="17.62" x="422.34" y="553.85" fill="#ff206d" transform="rotate(-45.001 422.899 562.674)" class="colorfe875e svgShape"></rect><rect width="1.12" height="17.26" x="412.04" y="558.62" fill="#ff206d" transform="rotate(-45.001 412.601 567.259)" class="colorfe875e svgShape"></rect><rect width="1.12" height="14.83" x="411.39" y="568.97" fill="#ff206d" transform="rotate(-45.001 411.945 576.394)" class="colorfe875e svgShape"></rect><path fill="#13285b" d="M457.44,584.33c0.01-0.04,0.02-0.07,0.02-0.11c0-0.04-0.01-0.07-0.02-0.1        c-0.01-0.04-0.01-0.07-0.02-0.11c-0.01-0.03-0.04-0.06-0.06-0.1c-0.02-0.03-0.03-0.06-0.05-0.08c0,0-0.01-0.01-0.01-0.01        c0,0-0.01-0.01-0.01-0.01l-5.92-5.85c-0.02-0.02-0.05-0.03-0.08-0.05c-0.03-0.02-0.06-0.05-0.1-0.06        c-0.03-0.01-0.07-0.02-0.1-0.02c-0.04-0.01-0.07-0.02-0.11-0.02c-0.04,0-0.07,0.01-0.11,0.02c-0.03,0.01-0.07,0.01-0.1,0.02        c-0.04,0.01-0.07,0.04-0.1,0.06c-0.03,0.02-0.05,0.03-0.08,0.05l-4.41,4.01c0,0,0,0,0,0c0,0,0,0,0,0l-2.2,1.99c0,0,0,0,0,0        l0,0l-4.39,3.99c0,0,0,0,0,0s0,0,0,0l-2.19,1.99h0c0,0,0,0,0,0l-11.02,10.01c-0.02,0.02-0.03,0.05-0.05,0.07        c-0.02,0.03-0.05,0.06-0.06,0.09c-0.02,0.03-0.03,0.07-0.04,0.1c-0.01,0.03-0.02,0.06-0.02,0.1c0,0.04,0,0.07,0.01,0.11        c0,0.03,0,0.07,0.01,0.1c0.01,0.04,0.03,0.07,0.05,0.1c0.01,0.02,0.02,0.05,0.03,0.07l5,6.7c0.01,0.01,0.01,0.01,0.02,0.02        c0.01,0.01,0.01,0.02,0.02,0.03c0.03,0.04,0.08,0.06,0.11,0.08c0.02,0.02,0.04,0.04,0.07,0.05c0.07,0.03,0.15,0.05,0.24,0.05        c0.11,0,0.21-0.04,0.31-0.1c0.01-0.01,0.02,0,0.03-0.01c0.01-0.01,0.01-0.01,0.02-0.02c0.01-0.01,0.02-0.01,0.03-0.02        l11.41-10.37l0,0l0,0l2.29-2.08c0,0,0,0,0,0c0,0,0,0,0,0l4.58-4.16c0,0,0,0,0,0s0,0,0,0l2.29-2.08c0,0,0,0,0,0s0,0,0,0        l4.56-4.14c0,0,0.01-0.01,0.01-0.01c0,0,0.01,0,0.01-0.01c0.02-0.02,0.03-0.05,0.05-0.08c0.02-0.03,0.05-0.06,0.06-0.09        C457.43,584.4,457.44,584.36,457.44,584.33z M454.64,585.51l-5.04-5.13l1.37-1.25l5.12,5.06L454.64,585.51z M452.36,587.58        l-4.97-5.19l1.38-1.25l5.04,5.13L452.36,587.58z M450.08,589.65l-4.9-5.26l1.38-1.25l4.97,5.2L450.08,589.65z M447.81,591.72        l-4.83-5.33l1.38-1.25l4.9,5.26L447.81,591.72z M445.53,593.79l-4.76-5.4l1.38-1.25l4.83,5.33L445.53,593.79z M443.25,595.87        l-4.69-5.46l1.38-1.25l4.76,5.4L443.25,595.87z M440.97,597.94l-4.62-5.53l1.38-1.25l4.69,5.46L440.97,597.94z M438.69,600.01        l-4.54-5.6l1.37-1.25l4.62,5.53L438.69,600.01z M436.41,602.08l-4.47-5.66l1.37-1.25l4.54,5.6L436.41,602.08z M434.13,604.15        l-4.4-5.73l1.37-1.25l4.47,5.66L434.13,604.15z M431.86,606.22l-4.33-5.8l1.37-1.25l4.4,5.73L431.86,606.22z" class="color1d135b svgShape"></path><path fill="#ffd7d7" d="M619.6,550.57c-5.84,2.82-14.66,4.2-24.14,4.2c-9.88,0-18.72-1.93-24.56-4.96l0.8-11.83l0.07-0.99        c0.01-0.01,0.03-0.01,0.05-0.01h-0.05c0,0,0.58-0.21,1.3-0.7c1.18-0.81,2.71-2.37,2.57-4.98c-0.06-1.25-1.24-4.84-1.24-4.84        l-1.31-5.03l-0.02-0.06l-4.74-18.27l47.55-4.17c0,0-4.07,21.86-3.43,29.96c0.43,5.37,6.32,4.85,6.32,4.85L619.6,550.57z" class="colorfae0b2 svgShape"></path><path fill="#ff206d" d="M609.04,513.07c0,0-3.59,19.18-30.19,23.89c-1.68,0.3-4.96,0.78-7.14,1.01l0.07-0.99        c0.01-0.01,0.03-0.01,0.05-0.01h-0.05c0,0,0.58-0.21,1.3-0.7c1.18-0.81,2.71-2.37,2.57-4.98c-0.06-1.25-1.33-5.22-1.33-5.22        S599.89,528.55,609.04,513.07z" class="colorfe875e svgShape"></path><path fill="#ffd7d7" d="M625,484.05c-0.79,22.11-14.68,42.54-36.79,41.75c-22.11-0.79-41.57-0.01-43.27-44.63        c-1.18-30.97,19.36-39.38,41.46-38.59C608.52,443.38,625.8,461.94,625,484.05z" class="colorfae0b2 svgShape"></path><path fill="#13285b" d="M550.63,466.89c1.75,1.29,4.44,2.35,8.57,2.79c14.38,1.52,40.51-10.24,40.51-10.24s-2.56,7.78-1.7,21.84        c0,0,4.63-8.92,11.23-0.38c5.9,7.67-2.51,16.75-7.55,14.77c0,0-2.34,17.39-11.03,18.96c-8.7,1.57-10.37-6.56-23.38-9.84        c-13-3.29-17.4,3.45-17.4,3.45c11.25,26.54,48.91,16.83,48.91,16.83s4.68,4.7,14.72,3.67c10.04-1.03,12.04-22.68,12.04-22.68        c6.79,2.42,14.48-10.92,15.66-31.27c1.18-20.35-17.67-20.96-17.67-20.96s2.25-14.25-19.82-22.22        c-21.5-7.76-29.14,0.6-29.53,1.04c0.19-0.66,4.36-14.56-6.92-14.77c-11.55-0.21-10.1,11.62-10.1,11.62        c-12.88-11.67-31.29,4.23-27.98,17.58c3.31,13.36,18.63,11.96,18.63,11.96S546.29,463.68,550.63,466.89L550.63,466.89z" class="color13375b svgShape"></path><path fill="#13285b" d="M598.17,468.49c0,0-0.59,13.87,0.13,22.63c0.72,8.75,1.31,17.67-4.32,21.98c0,0,10.77-3.17,7.84-18.71        c-2.93-15.54-2.07-16.6-0.23-21.6C603.44,467.8,598.17,468.49,598.17,468.49z" class="color13375b svgShape"></path></g><path fill="#5946b6" d="M737.62,409.93v5.9H221.4v-5.9c0-20.46,18.2-29.46,27.96-29.46h460.49     C721.42,380.47,737.62,391.41,737.62,409.93z" class="color466eb6 svgShape"></path><circle cx="251.39" cy="398.34" r="6.71" fill="#172851" class="color171c51 svgShape"></circle><circle cx="286.04" cy="398.34" r="6.71" fill="#172851" class="color171c51 svgShape"></circle><circle cx="318.94" cy="398.34" r="6.71" fill="#172851" class="color171c51 svgShape"></circle><polygon fill="#ffffff" points="439.79 688.82 351.73 688.82 252.42 380.47 340.47 380.47" class="colorfff svgShape"></polygon><polygon fill="#ffffff" points="489.89 688.82 463.6 688.82 364.29 380.47 390.56 380.47" class="colorfff svgShape"></polygon><polygon fill="#ffffff" points="697.8 688.82 609.75 688.82 510.43 380.47 598.49 380.47" class="colorfff svgShape"></polygon><path fill="#ffffff" d="M737.62,656.96v2.41c0,11.77-6.92,21.94-16.92,26.65l-98.4-305.54h26.27L737.62,656.96z" class="colorfff svgShape"></path><path fill="#f286f0" d="M173.61,644.74v120.73c0,7.39,6.01,13.4,13.4,13.4H346.5c7.39,0,13.4-6.01,13.4-13.4V644.74H173.61z         M354.32,760.39c0,6.26-5.1,11.35-11.36,11.35H192.33c-6.27,0-11.36-5.09-11.36-11.35v-95.73c0-6.27,5.09-11.36,11.36-11.36        h150.62c6.26,0,11.36,5.09,11.36,11.36V760.39z" class="color9386f2 svgShape"></path><path fill="#ffb8d0" d="M354.32,664.66v95.73c0,6.26-5.1,11.35-11.36,11.35H192.33c-6.27,0-11.36-5.09-11.36-11.35v-95.73        c0-6.27,5.09-11.36,11.36-11.36h150.62C349.21,653.3,354.32,658.4,354.32,664.66z" class="colorbdb8ff svgShape"></path><path fill="#5946b6" d="M359.9,630.95v13.79H173.61v-13.79c0-7.39,6.01-13.4,13.4-13.4H346.5        C353.89,617.55,359.9,623.57,359.9,630.95z" class="color5546b6 svgShape"></path><path fill="#d996ad" d="M336.13,630.26c0,1.79,1.45,3.25,3.25,3.25c1.79,0,3.25-1.45,3.25-3.25c0-1.79-1.45-3.25-3.25-3.25     C337.59,627.01,336.13,628.47,336.13,630.26z" class="color96d9c9 svgShape"></path><path fill="#fe5e95" d="M319.34,630.26c0,1.79,1.45,3.25,3.25,3.25s3.25-1.45,3.25-3.25c0-1.79-1.45-3.25-3.25-3.25     S319.34,628.47,319.34,630.26z" class="colorfec65e svgShape"></path><path fill="#ffd7d7" d="M269.76,676.63c-0.06,0.36-0.38,0.77-0.73,1.28c-0.42,0.6-0.88,1.34-0.95,2.21      c-0.24,2.57-4.63,5.08-4.63,5.08l-10.39-0.23c0,0,0.18-0.91,0.17-2.26c-0.02-1.44-0.27-3.39-1.23-5.26      c-0.01-0.03-0.02-0.06-0.04-0.09c-1.91-3.64,12.42-2.56,16.12-1.84C269.48,675.81,269.86,676.15,269.76,676.63z" class="colorfae0b2 svgShape"></path><path fill="#ff206d" d="M270.33,676.61c0,0-0.4,0.54-1.29,1.3c-2.09,1.77-6.91,4.74-15.8,4.81c-0.02-1.44-0.27-3.39-1.23-5.26      c1.79-0.56,3.73-0.9,5.35-0.85c5.38,0.15,10.7,0.06,12.41,0.02C270.13,676.62,270.33,676.61,270.33,676.61z" class="colorfe875e svgShape"></path><path fill="#ffd7d7" d="M239.94,663.45c1.98,9.67,9.59,17.64,19.26,15.66c9.67-1.98,18.29-3.07,15.75-22.82       c-1.76-13.71-11.42-15.9-21.09-13.93C244.2,644.34,237.96,653.78,239.94,663.45z" class="colorfae0b2 svgShape"></path><path fill="#13285b" d="M254.49,679.57c0,0,17.29,1.5,20.28-11.01c0,0-2.43-2.64-7.91-0.24c-5.48,2.4-5.62,6.1-9.56,6.05       c-3.94-0.05-6.25-7.53-6.25-7.53c-2.08,1.24-6.44-2.13-4.41-5.94c2.27-4.25,4.97-0.66,4.97-0.66       c-0.65-6.25-2.36-9.49-2.36-9.49s12.36,3.25,18.58,1.52c1.78-0.5,2.81-1.25,3.56-1.86c0.7-0.57,1.33-1.16,1.88-1.77       c5.14-5.66,0.8-14.76-6.84-14.54c-4.09,0.12-9.43,0-15.86,1.08c-14.12,2.37-12.33,12.57-12.33,12.57l0.11,2.28       c0,0-5.5,1.28-2.57,10.57C238.73,669.91,244.11,679.69,254.49,679.57z" class="color13375b svgShape"></path><path fill="#13285b" d="M250.6,654.63c0,0,1.28,6.06,1.61,9.97c0.33,3.91,0.73,7.87,3.52,9.35c0,0-4.97-0.6-4.83-7.65       c0.15-7.05-0.31-7.46-1.49-9.52C248.23,654.71,250.6,654.63,250.6,654.63z" class="color13375b svgShape"></path><path fill="#172851" d="M250.72,655.12c0,0,1.27,6.08,1.59,10c0.32,3.92,0.62,7.37,3.42,8.87c0,0-4.9-0.1-4.73-7.17       c0.16-7.07-0.3-7.48-1.47-9.55C248.35,655.2,250.72,655.12,250.72,655.12z" class="color171c51 svgShape"></path><path fill="#303a52" d="M269.01,738.64c-1.51-0.45-2.42-0.56-4.27-0.17c-1.49,0.3-3.21,1.7-3.8,2.2       c-0.14,0.11-0.22,0.19-0.22,0.19l0.51,1.63l1.49,4.78l0.26,0.83c-3.9,0.72-7.6,1.06-11.09,1.06c-0.63,0-1.26-0.01-1.88-0.04       c-0.62-0.02-1.24-0.06-1.85-0.1l1.02-13.36l0.61-7.96l2.67-34.99l0.59-7.74l9.69-0.22c0,0.08-0.01,0.14-0.01,0.22       c-0.14,2.57-0.31,5.88-0.51,10.1c-0.23,4.95-0.51,11.15-0.87,18.89c-0.37,7.74,0.82,13.74,3.04,18.31       C265.64,734.83,267.21,736.93,269.01,738.64z" class="color183055 svgShape"></path><path fill="#ffd7d7" d="M252.47,684.97v7.74c2.54,2.54,6.33,2.83,9.77,2.37c0.2-4.22,0.37-7.75,0.52-10.32L252.47,684.97z" class="colorfae0b2 svgShape"></path><path fill="#443589" d="M226.42,740.19c0,0,7.87-55,26.64-55.21l-3.87,50.71c2.54,1.39,6.5,3.17,11.18,3.96l2.62,8.44       c0,0-7.9,1.62-14.82,0.99l-1.75,22.95l-0.81,10.59l-22.53-2.81L226.42,740.19z" class="color355389 svgShape"></path><path fill="#443589" d="M226.42,740.19c5.2,4.98,12.61,8.16,21.75,8.83l4.89-64.04l-3.84,0.09c0,0-27.68,5.81-30.91,29.07       C216.84,724.76,219.87,733.91,226.42,740.19z" class="color355389 svgShape"></path><path fill="#303a52" d="M249.8,727.7l-0.61,7.96c-1.99-1.07-3.97-2.37-5.71-3.87c-8.27-7.08-6.12-16.89-6.12-16.89       C237.66,720.87,243.59,725,249.8,727.7z" class="color183055 svgShape"></path><path fill="#f47fa7" d="M269.01,738.64c0,0-3.14,2.42-8.07,2.04c-0.58-0.05-0.23-1.02-1.6-1.22c-2.32-0.35-6.26-1.66-10.15-3.79       l0.61-7.96c7.01,3.03,14.36,4.24,14.36,4.24l0.25,0.34L269.01,738.64z" class="colorf48c7f svgShape"></path><path fill="#303a52" d="M275.66,772.04h-29.25l1.57-20.62l0.19-2.39v-0.01c0.24,0.02,0.48,0.04,0.73,0.06       c0.08,0,0.17,0.01,0.25,0.01c0.28,0.02,0.57,0.03,0.87,0.04c0.61,0.02,1.24,0.04,1.88,0.04c3.49,0,7.19-0.35,11.09-1.06       l-0.26-0.83c0.34,0.07,0.68,0.12,1.03,0.17c0.27,0.05,0.55,0.08,0.83,0.11c0.19,0.03,0.39,0.05,0.58,0.07       c0.36,0.04,0.73,0.07,1.09,0.08c0.05,0.01,0.09,0.02,0.14,0.01c0.46,0.04,0.92,0.06,1.38,0.06c1.5,0.04,2.98-0.03,4.36-0.16       c0.24-0.02,0.46-0.05,0.69-0.08c0.26-0.03,0.53-0.06,0.78-0.1c0.19-0.02,0.37-0.05,0.55-0.08v0.01l0.24,3.94L275.66,772.04z" class="color183055 svgShape"></path><path fill="#443589" d="M296.09,742.06l2.5,27.24l0.51,8.24l-22.78,5.09l-0.65-10.59l-1.51-24.69l-3.82-62.38       C287.27,687.43,296.09,742.06,296.09,742.06z" class="color355389 svgShape"></path><path fill="#ffd7d7" d="M260.73,740.86l0.51,1.63l1.49,4.77c8.04,1.54,17.81-0.71,17.81-2.39c0-0.11,0-0.21-0.01-0.29       c-0.01-0.1-0.01-0.18-0.02-0.26c-0.12-0.02-0.23-0.05-0.34-0.07c-4.13-0.85-8-2.63-11.15-5.62c-0.01,0-0.01,0-0.01-0.01       c-0.57-0.17-1.04-0.29-1.52-0.35h-0.01c-0.8-0.11-1.59-0.06-2.74,0.18C262.9,738.85,260.73,740.86,260.73,740.86z" class="colorfae0b2 svgShape"></path><path fill="#443589" d="M269.01,738.64c0.01,0.01,0.01,0.01,0.01,0.01c1.52,0.46,3.22,3.28,7.1,4.36       c3.37,0.94,2.29,0.83,4.39,1.32c0.65,0.13,1.3,0.23,1.95,0.31c1.47,0.18,2.96,0.26,4.46,0.24c3.31-0.05,6.46-1.02,9.16-2.81       c8.26-5.45,12.44-18.39,4.76-34.89c-10.19-21.9-29.02-22.41-29.02-22.41c-0.24-1.3-0.36-2.04-0.36-2.04h-8.49l-0.11-0.01h-0.01       c-0.04,0.62-0.08,1.31-0.12,2.05c-0.32,5.58-0.7,14.66-1.39,29.21C260.8,726.02,263.98,733.87,269.01,738.64z" class="color355389 svgShape"></path><path fill="#ffd7d7" d="M262.88,682.71l0.11,0.01h8.49c5.94,0,6.96-13.76,5.96-15.45c-0.23-0.4-0.55-0.72-0.92-0.94       c-1.22-0.69-3.02-0.09-4.19,3.82c-1.53,5.1-8.49,4.59-9.01,7.79C263.16,678.91,263.02,680.42,262.88,682.71z" class="colorfae0b2 svgShape"></path><path fill="#ff206d" d="M267.48,738.28c0,0,1.33,3.45,6.08,5.23c4.76,1.78,6.96,1.07,6.96,1.07l-0.36-0.33       c-4.13-0.85-8-2.63-11.15-5.62c-0.01,0-0.01,0-0.01-0.01C268.44,738.47,267.97,738.35,267.48,738.28L267.48,738.28z" class="colorfe875e svgShape"></path><path fill="#303a52" d="M248.17 749.03l-.19 2.39c-15.5-1.43-22.05-5.02-22.05-5.02l.48-6.21C231.62 745.18 239.03 748.35 248.17 749.03zM296.35 744.95c0 0-6.41 4.55-21.96 6.35l-.24-3.94c3.71-.57 6.39-1.61 6.39-2.49 0-.1 0-.21-.01-.29.63.03 1.28.05 1.93.05 1.47.19 2.97.26 4.47.24 3.31-.05 6.45-1.03 9.16-2.82L296.35 744.95z" class="color183055 svgShape"></path><path fill="#f47fa7" d="M274.4,751.3c-3.81,0.43-8.16,0.71-13.1,0.71c-5.02,0-9.44-0.23-13.31-0.58l0.19-2.39       c0.24,0.02,0.48,0.03,0.73,0.05c0.08,0,0.17,0.01,0.25,0.01c0.28,0.02,0.57,0.03,0.87,0.04c0.61,0.02,1.24,0.04,1.88,0.04       c3.49,0,7.19-0.35,11.09-1.06l-0.26-0.83c0.34,0.07,0.68,0.12,1.03,0.17c0.27,0.05,0.55,0.08,0.83,0.11       c0.19,0.03,0.39,0.05,0.58,0.07c0.36,0.04,0.73,0.07,1.09,0.08c0.05,0.01,0.09,0.02,0.14,0.01c0.46,0.04,0.92,0.06,1.38,0.06       c1.5,0.04,2.98-0.03,4.36-0.16c0.24-0.02,0.46-0.05,0.69-0.08c0.26-0.03,0.53-0.06,0.78-0.1c0.19-0.01,0.37-0.04,0.55-0.07       L274.4,751.3z" class="colorf49c7f svgShape"></path><path fill="#172851" d="M262.98 748.35c-.11 0-.21-.07-.24-.18l-2.66-8.48c-.04-.13.03-.27.16-.31.13-.04.27.03.31.16l2.66 8.48c.04.13-.03.27-.16.31C263.03 748.35 263.01 748.35 262.98 748.35zM260.37 748.76c-.11 0-.21-.07-.24-.18l-2.81-9.46c-.04-.13.04-.27.17-.31.13-.04.27.04.31.17l2.81 9.46c.04.13-.04.27-.17.31C260.42 748.76 260.39 748.76 260.37 748.76zM271.47 682.97C271.47 682.97 271.47 682.97 271.47 682.97l-8.6-.01c-.14 0-.25-.11-.25-.25 0-.14.11-.25.25-.25 0 0 0 0 0 0l8.6.01c.14 0 .25.11.25.25C271.72 682.86 271.61 682.97 271.47 682.97zM262.79 685.45c-.14 0-.25-.11-.25-.25 0-.14.11-.25.25-.25l9.05-.01c0 0 0 0 0 0 .14 0 .25.11.25.25 0 .14-.11.25-.25.25L262.79 685.45C262.79 685.45 262.79 685.45 262.79 685.45z" class="color171c51 svgShape"></path><path fill="#172851" d="M260.32 739.87c.12 0 .22-.08.25-.2.03-.14-.06-.27-.19-.3l-2.77-.58c-.13-.03-.27.06-.3.19-.03.14.06.27.19.3l2.77.58C260.29 739.87 260.31 739.87 260.32 739.87zM260.57 740.64c.12 0 .23-.09.25-.21.02-.14-.07-.27-.2-.29l-2.75-.49c-.14-.02-.27.07-.29.2-.02.14.07.27.2.29l2.75.49C260.54 740.64 260.55 740.64 260.57 740.64zM260.81 741.41c.12 0 .23-.09.25-.22.02-.14-.08-.26-.21-.28l-2.74-.4c-.14-.02-.26.08-.28.21-.02.14.08.26.21.28l2.74.4C260.78 741.41 260.8 741.41 260.81 741.41zM261.05 742.18c.13 0 .23-.09.25-.22.02-.14-.08-.26-.22-.28l-2.72-.31c-.14-.01-.26.08-.28.22-.02.14.08.26.22.28l2.72.31C261.03 742.18 261.04 742.18 261.05 742.18zM261.29 742.95c.13 0 .24-.1.25-.23.01-.14-.09-.26-.23-.27l-2.71-.22c-.14-.01-.26.09-.27.23-.01.14.09.26.23.27l2.71.22C261.28 742.95 261.28 742.95 261.29 742.95zM261.53 743.73c.13 0 .24-.11.25-.24.01-.14-.1-.26-.24-.26l-2.7-.13c-.13 0-.26.1-.26.24-.01.14.1.26.24.26l2.7.13C261.52 743.73 261.53 743.73 261.53 743.73zM261.77 744.5c.14 0 .25-.11.25-.25 0-.14-.11-.25-.25-.25l-2.68-.04c0 0 0 0 0 0-.14 0-.25.11-.25.25 0 .14.11.25.25.25L261.77 744.5C261.77 744.5 261.77 744.5 261.77 744.5zM262.02 745.27c.14 0 .25-.12.25-.26 0-.14-.11-.25-.25-.25 0 0 0 0-.01 0l-2.67.05c-.14 0-.25.12-.25.26 0 .14.11.25.25.25 0 0 0 0 .01 0L262.02 745.27zM262.27 746.04c.14-.01.24-.13.24-.26-.01-.14-.12-.24-.26-.24l-2.65.14c-.14.01-.24.13-.24.26.01.13.12.24.25.24 0 0 .01 0 .01 0L262.27 746.04zM262.52 746.81c.14-.01.24-.13.23-.27-.01-.14-.14-.24-.27-.23l-2.64.23c-.14.01-.24.13-.23.27.01.13.12.23.25.23.01 0 .01 0 .02 0L262.52 746.81zM262.77 747.58c.14-.02.24-.14.22-.28-.02-.14-.14-.23-.28-.22l-2.63.32c-.14.02-.24.14-.22.28.02.13.12.22.25.22.01 0 .02 0 .03 0L262.77 747.58zM262.94 747.85l-2.61.41c-.14.02-.23.15-.21.29.02.12.13.21.25.21.01 0 .03 0 .04 0l2.61-.41c.14-.02.23-.15.21-.29S263.08 747.83 262.94 747.85zM262.79 685.45C262.79 685.45 262.79 685.45 262.79 685.45c.14 0 .25-.11.26-.24l.08-2.49c0-.14-.1-.25-.24-.26-.14-.01-.25.1-.26.24l-.08 2.49C262.54 685.33 262.65 685.44 262.79 685.45zM263.66 682.46C263.66 682.46 263.66 682.46 263.66 682.46c-.14 0-.25.11-.25.25l-.04 2.49c0 .14.11.25.25.26 0 0 0 0 0 0 .14 0 .25-.11.25-.25l.04-2.49C263.91 682.58 263.8 682.46 263.66 682.46zM264.44 682.46C264.44 682.46 264.44 682.46 264.44 682.46c-.14 0-.25.11-.25.25l0 2.48c0 .14.11.25.25.25 0 0 0 0 0 0 .14 0 .25-.11.25-.25l0-2.48C264.69 682.57 264.58 682.46 264.44 682.46zM265.22 682.46C265.22 682.46 265.22 682.46 265.22 682.46c-.14 0-.25.12-.25.26l.04 2.48c0 .14.11.25.25.25 0 0 0 0 0 0 .14 0 .25-.12.25-.26l-.04-2.48C265.47 682.57 265.36 682.46 265.22 682.46zM265.99 682.46c-.14 0-.25.12-.24.26l.09 2.48c0 .14.12.24.25.24 0 0 .01 0 .01 0 .14 0 .25-.12.24-.26l-.09-2.48C266.25 682.57 266.13 682.45 265.99 682.46zM266.77 682.46c-.14.01-.25.13-.24.26l.13 2.48c.01.13.12.24.25.24 0 0 .01 0 .01 0 .14-.01.25-.13.24-.26l-.13-2.48C267.03 682.56 266.9 682.46 266.77 682.46zM267.55 682.47c-.14.01-.24.13-.23.27l.17 2.48c.01.13.12.23.25.23.01 0 .01 0 .02 0 .14-.01.24-.13.23-.27l-.17-2.48C267.81 682.56 267.69 682.46 267.55 682.47zM268.32 682.47c-.14.01-.24.13-.23.27l.21 2.47c.01.13.12.23.25.23.01 0 .01 0 .02 0 .14-.01.24-.13.23-.27l-.21-2.47C268.58 682.56 268.46 682.45 268.32 682.47zM269.1 682.47c-.14.01-.24.14-.22.28l.25 2.47c.01.13.12.23.25.23.01 0 .02 0 .03 0 .14-.01.24-.14.22-.28l-.25-2.47C269.36 682.55 269.24 682.45 269.1 682.47zM269.88 682.47c-.14.02-.24.14-.22.28l.29 2.47c.02.13.12.22.25.22.01 0 .02 0 .03 0 .14-.02.24-.14.22-.28l-.29-2.47C270.14 682.55 270.02 682.45 269.88 682.47zM270.66 682.47c-.14.02-.23.14-.22.28l.33 2.47c.02.13.12.22.25.22.01 0 .02 0 .03 0 .14-.02.23-.14.22-.28l-.33-2.47C270.92 682.55 270.8 682.45 270.66 682.47zM271.72 682.68c-.02-.14-.15-.23-.29-.21-.14.02-.23.15-.21.29l.37 2.46c.02.12.13.21.25.21.01 0 .03 0 .04 0 .14-.02.23-.15.21-.29L271.72 682.68z" class="color171c51 svgShape"></path><path fill="#303a52" d="M271.83,684.76c0,0,7.29,25.14,11.27,29.03c3.97,3.9,5.89-1.36,5.89-1.36l-1.02,13.76      C287.96,726.19,276.21,718.29,271.83,684.76z" class="color183055 svgShape"></path><path fill="#ff206d" d="M303.41,630.26c0,1.79,1.46,3.25,3.25,3.25s3.25-1.45,3.25-3.25c0-1.79-1.45-3.25-3.25-3.25     S303.41,628.47,303.41,630.26z" class="colorfe875e svgShape"></path><g fill="#000000" class="color000 svgShape"><circle cx="288.5" cy="757.1" r="5.61" fill="#ffffff" class="colorfff svgShape"></circle><path fill="#ffffff" d="M256.45,754.03c0,4.79,3.89,8.68,8.68,8.68c4.79,0,8.68-3.89,8.68-8.68c0-4.79-3.89-8.68-8.68-8.68      C260.33,745.35,256.45,749.24,256.45,754.03z" class="colorfff svgShape"></path><circle cx="245.01" cy="757.1" r="5.61" fill="#ffffff" class="colorfff svgShape"></circle></g><g fill="#000000" class="color000 svgShape"><path fill="#f286ab" d="M110.99,318.42v120.73c0,7.39,6.01,13.4,13.4,13.4h159.49c7.39,0,13.4-6.01,13.4-13.4V318.42H110.99z         M116.57,338.34c0-6.27,5.1-11.36,11.36-11.36h150.62c6.27,0,11.36,5.09,11.36,11.36v95.73c0,6.26-5.09,11.35-11.36,11.35        H127.93c-6.26,0-11.36-5.09-11.36-11.35V338.34z" class="color98f286 svgShape"></path><path fill="#c3c3c3" d="M116.57,338.34v95.73c0,6.26,5.1,11.35,11.36,11.35h150.62c6.27,0,11.36-5.09,11.36-11.35v-95.73        c0-6.27-5.09-11.36-11.36-11.36H127.93C121.67,326.98,116.57,332.08,116.57,338.34z" class="colorc5ffb6 svgShape"></path><path fill="#4667b6" d="M110.99,304.63v13.79h186.29v-13.79c0-7.39-6.01-13.4-13.4-13.4H124.39        C117,291.23,110.99,297.25,110.99,304.63z" class="color54b646 svgShape"></path><path fill="#ff206d" d="M134.76,303.94c0,1.79-1.45,3.25-3.25,3.25s-3.25-1.45-3.25-3.25c0-1.79,1.45-3.25,3.25-3.25     S134.76,302.15,134.76,303.94z" class="colorfe875e svgShape"></path><path fill="#fe5e95" d="M151.54,303.94c0,1.79-1.45,3.25-3.25,3.25s-3.25-1.45-3.25-3.25c0-1.79,1.45-3.25,3.25-3.25     S151.54,302.15,151.54,303.94z" class="colorfec65e svgShape"></path><path fill="#d996ad" d="M167.48,303.94c0,1.79-1.45,3.25-3.25,3.25s-3.25-1.45-3.25-3.25c0-1.79,1.45-3.25,3.25-3.25     S167.48,302.15,167.48,303.94z" class="color96d9c9 svgShape"></path><path fill="#13285b" d="M215.81,312.44c7.21,1.99,12.19,13.11,14.34,27.85c2.15,14.73,12.73,33.22,4.06,39.26      c-8.67,6.04-25.49-4.22-36.26,7.63c-10.77,11.85-28.07,14.76-28.07,14.76s-11.82-7.4-10.29-32.48      c1.53-25.08,18.75-18.32,24.88-29.31C190.6,329.15,191.46,305.72,215.81,312.44z" class="color13375b svgShape"></path><path fill="#ffd7d7" d="M193.97,346.06l18.25,1.08l-1.62,7.05l-0.01,0.02l-0.45,1.94l-0.42,1.87l-0.09,0.39l-2.13,0.49l1.58,1.22       c0,0-0.38,2.88-6.02,3.51c-5.64,0.63-7.95-1.9-7.95-1.9L193.97,346.06z" class="colorfae0b2 svgShape"></path><path fill="#ffd7d7" d="M192.78,340.65c0.54,8.46,5.95,14.88,14.28,16.39c6.38,1.15,10.87-1.97,16.33-18.36       c2.68-8.04-7.84-14.87-16.29-14.32C198.65,324.9,192.24,332.19,192.78,340.65z" class="colorfae0b2 svgShape"></path><path fill="#ff206d" d="M200.87,358.11c1.67,1.31,4.12,2.45,7.7,3.07c0,0,0.36-0.37,0.5-1.06c0.03-0.13,0.07-0.3,0.13-0.5       c0.27-0.93,0.83-2.41,0.83-2.41s-9.8-0.06-12.77-6.27C197.27,350.94,196.86,354.99,200.87,358.11z" class="colorfe875e svgShape"></path><path fill="#13285b" d="M192.13,337.1c0,0,19.7,4.2,28.75-7.13c0,0-5.66,8.08-10.23,7.8c0,0,6.58,1.26,10.37-6.48      c0,0,2.02,6.51,5.48,7.5c0,0,0.95-18.86-15.26-19.38C195.03,318.88,192.09,329.7,192.13,337.1z" class="color13375b svgShape"></path><g fill="#000000" class="color000 svgShape"><path fill="#f8588f" d="M192.38,362.08l-6.51,92.46l-15.61-1.76c0,0-3.07-15.04-5.94-29.16c-2.87-14.12-0.26-38.78,6.91-45.68       C178.41,371.05,192.38,362.08,192.38,362.08z" class="colorf8c558 svgShape"></path><path fill="#ffd7d7" d="M286.24,383.57l-2.14,2.33c-2.8,3.04-7.57,3.24-10.61,0.44l0,0c-3.04-2.8-3.24-7.57-0.44-10.61         l2.14-2.33c2.8-3.04,7.57-3.24,10.61-0.44l0,0C288.83,375.75,289.03,380.53,286.24,383.57z" class="colorfae0b2 svgShape"></path><path fill="#ffd7d7" d="M272.99,378.99L272.99,378.99c-1.42-0.1-2.42,2.7-2.32,1.28l0.31-9.62c0.1-1.42,1.35-2.51,2.77-2.4l0,0         c1.42,0.1,2.51,1.35,2.4,2.78l-0.4,5.56C275.66,378.01,274.41,379.09,272.99,378.99z" class="colorfae0b2 svgShape"></path><path fill="#ffd7d7" d="M276.15,376.19L276.15,376.19c-1.05-0.97-1.12-2.62-0.15-3.67l3.78-4.1c0.97-1.05,2.62-1.12,3.67-0.15         l0,0c1.05,0.97,1.12,2.62,0.15,3.67l-3.78,4.1C278.85,377.08,277.2,377.15,276.15,376.19z" class="colorfae0b2 svgShape"></path><path fill="#ffd7d7" d="M280.91,375.78L280.91,375.78c-1.05-0.97-1.12-2.62-0.15-3.67l3.78-4.1c0.97-1.05,2.62-1.12,3.67-0.15         l0,0c1.05,0.97,1.12,2.62,0.15,3.67l-3.78,4.1C283.61,376.68,281.96,376.75,280.91,375.78z" class="colorfae0b2 svgShape"></path><path fill="#ffd7d7" d="M282.4,378.96L282.4,378.96c-1.05-0.97-1.12-2.62-0.15-3.67l3.78-4.1c0.97-1.05,2.62-1.12,3.67-0.15         l0,0c1.05,0.97,1.12,2.62,0.15,3.67l-3.78,4.1C285.1,379.86,283.45,379.93,282.4,378.96z" class="colorfae0b2 svgShape"></path><path fill="#ffd7d7" d="M282.62,383.49L282.62,383.49c-1.05-0.97-1.12-2.62-0.15-3.67l3.78-4.1c0.97-1.05,2.62-1.12,3.67-0.15         l0,0c1.05,0.97,1.12,2.62,0.15,3.67l-3.78,4.1C285.32,384.39,283.67,384.46,282.62,383.49z" class="colorfae0b2 svgShape"></path><rect width="8.45" height=".54" x="276.93" y="371.73" fill="#ff206d" transform="rotate(-50.36 281.14 372.011)" class="colorfe875e svgShape"></rect><rect width="8.27" height=".54" x="282.14" y="373.46" fill="#ff206d" transform="rotate(-50.335 286.303 373.74)" class="colorfe875e svgShape"></rect><rect width="7.11" height=".54" x="283.44" y="377.79" fill="#ff206d" transform="rotate(-50.335 287.024 378.071)" class="colorfe875e svgShape"></rect><path fill="#ffd7d7" d="M179.12,465.38l-2.03-2.42c-2.66-3.16-2.24-7.92,0.92-10.58l0,0c3.16-2.66,7.92-2.24,10.58,0.92         l2.03,2.42c2.66,3.16,2.24,7.92-0.92,10.58l0,0C186.54,468.96,181.78,468.55,179.12,465.38z" class="colorfae0b2 svgShape"></path><path fill="#ffd7d7" d="M185.36,452.83L185.36,452.83c0.28-1.4-2.37-2.75-0.97-2.46l9.5,1.54c1.4,0.28,2.31,1.66,2.03,3.06l0,0         c-0.28,1.4-1.66,2.31-3.06,2.03l-5.47-1.11C185.99,455.61,185.08,454.23,185.36,452.83z" class="colorfae0b2 svgShape"></path><path fill="#ffd7d7" d="M187.73,456.32L187.73,456.32c1.09-0.92,2.74-0.78,3.66,0.32l3.59,4.27c0.92,1.09,0.78,2.74-0.32,3.66         l0,0c-1.09,0.92-2.74,0.78-3.66-0.32l-3.59-4.27C186.5,458.89,186.64,457.24,187.73,456.32z" class="colorfae0b2 svgShape"></path><path fill="#ffd7d7" d="M187.53,461.1L187.53,461.1c1.09-0.92,2.74-0.78,3.66,0.32l3.59,4.27c0.92,1.09,0.78,2.74-0.32,3.66         l0,0c-1.09,0.92-2.74,0.78-3.66-0.32l-3.59-4.27C186.29,463.66,186.43,462.02,187.53,461.1z" class="colorfae0b2 svgShape"></path><path fill="#ffd7d7" d="M184.19,462.17L184.19,462.17c1.09-0.92,2.74-0.78,3.66,0.32l3.59,4.27c0.92,1.09,0.78,2.74-0.32,3.66         v0c-1.09,0.92-2.74,0.78-3.66-0.32l-3.59-4.27C182.95,464.73,183.09,463.08,184.19,462.17z" class="colorfae0b2 svgShape"></path><path fill="#ffd7d7" d="M179.66,461.81L179.66,461.81c1.09-0.92,2.74-0.78,3.66,0.32l3.59,4.27c0.92,1.09,0.78,2.74-0.32,3.66         l0,0c-1.09,0.92-2.74,0.78-3.66-0.32l-3.59-4.27C178.42,464.37,178.57,462.72,179.66,461.81z" class="colorfae0b2 svgShape"></path><rect width=".54" height="8.45" x="190.97" y="457.6" fill="#ff206d" transform="rotate(-42.998 191.241 461.814)" class="colorfe875e svgShape"></rect><rect width=".54" height="8.27" x="188.6" y="462.55" fill="#ff206d" transform="rotate(-42.971 188.851 466.677)" class="colorfe875e svgShape"></rect><rect width=".54" height="7.11" x="184.22" y="463.29" fill="#ff206d" transform="rotate(-42.971 184.463 466.838)" class="colorfe875e svgShape"></rect><path fill="#b742b5" d="M239.51,379.04c-10.08-13.98-25.27-16.65-27.13-16.93c13.22,2.3,23.35,13.57,23.9,27.3       c0.02,0.39,0.03,0.79,0.03,1.18v17.29c22.22,12.47,42.8-17.6,42.8-17.6l-10.27-9.53C260.53,389.8,250.27,393.95,239.51,379.04z       " class="colorb75742 svgShape"></path><path fill="#f4588e" d="M155.37,413.65c0,17.99,4.49,32.64,18.5,46.14c0.48-0.14,1.91-0.46,5.52-3.94       c2.27-2.18,3.83-7.14,3.83-7.14s-0.73-1.2-1.77-3.26l5.08,0l31.45,0.03l17.91,0.02c1.5,0,2.69-1.26,2.6-2.76l-2.17-34.85V390.6       c0-0.4-0.01-0.79-0.03-1.18c-0.54-13.73-10.68-25-23.9-27.3c-0.06-0.01-0.13-0.02-0.19-0.03c-1.56-0.26-3.16-0.4-4.79-0.4       h-10.24c-1.62,0-3.22,0.13-4.78,0.4c-2.13,0.35-4.18,0.94-6.13,1.74C169.55,369.75,155.38,390.55,155.37,413.65z" class="colorf47458 svgShape"></path><path fill="#f8588f" d="M186.51,445.5h31.46v-0.02l-5.22-77.86l-0.37-5.5c-0.06-0.01-0.13-0.02-0.19-0.03       c-1.56-0.26-3.16-0.4-4.79-0.4h-10.24c-1.62,0-3.22,0.13-4.78,0.4l-0.4,5.69l-5.47,77.67L186.51,445.5z" class="colorf8c558 svgShape"></path><path fill="#ffd7d7" d="M191.98,367.77c2.51,1.21,6.16,8.1,10.22,8.1c4.25,0,8.04-6.96,10.55-8.26c0,0-4.19-1.39-3.54-7.01       c-0.06,0.2-0.1,0.37-0.13,0.5c-0.14,0.69-0.5,1.06-0.5,1.06c-3.58-0.62-6.03-1.76-7.7-3.07c-0.45-0.15-0.86-0.28-1.22-0.35       c-1.6-0.29-4.95-1.17-4.77,0.4C195.38,363.81,191.98,367.77,191.98,367.77z" class="colorfae0b2 svgShape"></path><path fill="#f4588e" d="M212.38,362.11l5.59,93.04l24.19-3l-6.45-45.5c0,0-9.29-15.23-11.47-23.3       C222.07,375.28,212.38,362.11,212.38,362.11z" class="colorf47458 svgShape"></path><path fill="#b742b5" d="M187.85,390.11c0,0-3.27,7.24-5.71,18.48c-2.44,11.24,1.08,40.1,1.08,40.1l-1.77-3.45       c0,0-8.03-16.49-6.85-26.63C175.78,408.48,179.75,399.49,187.85,390.11z" class="colorb75742 svgShape"></path></g><g fill="#000000" class="color000 svgShape"><circle cx="182.39" cy="430.78" r="5.61" fill="#ffffff" class="colorfff svgShape"></circle><path fill="#ffffff" d="M214.44,427.71c0,4.79-3.89,8.68-8.68,8.68s-8.68-3.89-8.68-8.68s3.89-8.68,8.68-8.68      S214.44,422.92,214.44,427.71z" class="colorfff svgShape"></path><circle cx="225.87" cy="430.78" r="5.61" fill="#ffffff" class="colorfff svgShape"></circle></g></g><g fill="#000000" class="color000 svgShape"><path fill="#fc85ae" d="M669.35,328.98v120.73c0,7.39,6.01,13.4,13.4,13.4h159.49c7.39,0,13.4-6.01,13.4-13.4V328.98H669.35z       M850.06,444.64c0,6.26-5.1,11.35-11.36,11.35H688.07c-6.27,0-11.36-5.09-11.36-11.35v-95.73c0-6.27,5.09-11.36,11.36-11.36      H838.7c6.26,0,11.36,5.09,11.36,11.36V444.64z" class="colorf286cb svgShape"></path><path fill="#d2d2d2" d="M850.06,348.91v95.73c0,6.26-5.1,11.35-11.36,11.35H688.07c-6.27,0-11.36-5.09-11.36-11.35v-95.73      c0-6.27,5.09-11.36,11.36-11.36H838.7C844.95,337.55,850.06,342.64,850.06,348.91z" class="colorffb6e8 svgShape"></path><path fill="#9e579d" d="M855.64,315.2v13.79H669.35V315.2c0-7.39,6.01-13.4,13.4-13.4h159.49      C849.63,301.8,855.64,307.81,855.64,315.2z" class="colorb6468a svgShape"></path><circle cx="835.12" cy="314.51" r="3.25" fill="#ff206d" class="colorfe875e svgShape"></circle><path fill="#fe5e95" d="M815.08,314.51c0,1.79,1.46,3.25,3.25,3.25c1.79,0,3.25-1.45,3.25-3.25s-1.45-3.25-3.25-3.25     C816.54,311.26,815.08,312.72,815.08,314.51z" class="colorfec65e svgShape"></path><circle cx="802.4" cy="314.51" r="3.25" fill="#d996ad" class="color96d9c9 svgShape"></circle><path fill="#f458f2" d="M774.24,372.65l6.51,92.46l15.61-1.76c0,0,3.07-15.04,5.94-29.16c2.87-14.12,0.26-38.78-6.91-45.67      C788.22,381.61,774.24,372.65,774.24,372.65z" class="color6d58f4 svgShape"></path><path fill="#ffd7d7" d="M680.39,394.13l2.14,2.33c2.8,3.04,7.57,3.24,10.61,0.44v0c3.04-2.8,3.24-7.57,0.44-10.61l-2.14-2.33        c-2.8-3.04-7.57-3.24-10.61-0.44l0,0C677.79,386.32,677.59,391.09,680.39,394.13z" class="colorfae0b2 svgShape"></path><path fill="#ffd7d7" d="M693.64,389.55L693.64,389.55c1.42-0.1,2.42,2.7,2.32,1.28l-0.31-9.62c-0.1-1.42-1.35-2.51-2.78-2.4l0,0        c-1.42,0.1-2.51,1.35-2.4,2.77l0.4,5.56C690.97,388.57,692.22,389.66,693.64,389.55z" class="colorfae0b2 svgShape"></path><path fill="#ffd7d7" d="M690.48,386.75L690.48,386.75c1.05-0.97,1.12-2.62,0.15-3.67l-3.78-4.1c-0.97-1.05-2.62-1.12-3.67-0.15        l0,0c-1.05,0.97-1.12,2.62-0.15,3.67l3.78,4.1C687.78,387.65,689.43,387.72,690.48,386.75z" class="colorfae0b2 svgShape"></path><path fill="#ffd7d7" d="M685.71,386.35L685.71,386.35c1.05-0.97,1.12-2.62,0.15-3.67l-3.78-4.1c-0.97-1.05-2.62-1.12-3.67-0.15        l0,0c-1.05,0.97-1.12,2.62-0.15,3.67l3.78,4.1C683.01,387.25,684.66,387.31,685.71,386.35z" class="colorfae0b2 svgShape"></path><path fill="#ffd7d7" d="M684.23,389.53L684.23,389.53c1.05-0.97,1.12-2.62,0.15-3.67l-3.78-4.1c-0.97-1.05-2.62-1.12-3.67-0.15        l0,0c-1.05,0.97-1.12,2.62-0.15,3.67l3.78,4.1C681.53,390.42,683.18,390.49,684.23,389.53z" class="colorfae0b2 svgShape"></path><path fill="#ffd7d7" d="M684.01,394.06L684.01,394.06c1.05-0.97,1.12-2.62,0.15-3.67l-3.78-4.1c-0.97-1.05-2.62-1.12-3.67-0.15        l0,0c-1.05,0.97-1.12,2.62-0.15,3.67l3.78,4.1C681.31,394.96,682.96,395.03,684.01,394.06z" class="colorfae0b2 svgShape"></path><rect width=".54" height="8.45" x="685.2" y="378.34" fill="#ff206d" transform="rotate(-39.673 685.524 382.581)" class="colorfe875e svgShape"></rect><rect width=".54" height="8.27" x="680.08" y="380.16" fill="#ff206d" transform="rotate(-39.664 680.293 384.277)" class="colorfe875e svgShape"></rect><rect width=".54" height="7.11" x="679.36" y="385.07" fill="#ff206d" transform="rotate(-39.65 679.642 388.664)" class="colorfe875e svgShape"></rect><path fill="#ffd7d7" d="M787.5,475.95l2.03-2.42c2.66-3.16,2.24-7.92-0.92-10.58l0,0c-3.16-2.66-7.92-2.24-10.58,0.92        l-2.03,2.42c-2.66,3.16-2.24,7.92,0.92,10.58v0C780.08,479.53,784.85,479.11,787.5,475.95z" class="colorfae0b2 svgShape"></path><path fill="#ffd7d7" d="M781.26,463.4L781.26,463.4c-0.28-1.4,2.37-2.75,0.97-2.46l-9.5,1.54c-1.4,0.28-2.31,1.66-2.03,3.06l0,0        c0.28,1.4,1.66,2.31,3.06,2.03l5.47-1.11C780.63,466.17,781.55,464.79,781.26,463.4z" class="colorfae0b2 svgShape"></path><path fill="#ffd7d7" d="M778.89,466.89L778.89,466.89c-1.09-0.92-2.74-0.78-3.66,0.32l-3.59,4.27        c-0.92,1.09-0.78,2.74,0.32,3.66l0,0c1.09,0.92,2.74,0.78,3.66-0.32l3.59-4.27C780.13,469.45,779.98,467.81,778.89,466.89z" class="colorfae0b2 svgShape"></path><path fill="#ffd7d7" d="M779.1,471.67L779.1,471.67c-1.09-0.92-2.74-0.78-3.66,0.32l-3.59,4.27c-0.92,1.09-0.78,2.74,0.32,3.66        v0c1.09,0.92,2.74,0.78,3.66-0.32l3.59-4.27C780.34,474.23,780.19,472.58,779.1,471.67z" class="colorfae0b2 svgShape"></path><path fill="#ffd7d7" d="M782.44,472.73L782.44,472.73c-1.09-0.92-2.74-0.78-3.66,0.32l-3.59,4.27        c-0.92,1.09-0.78,2.74,0.32,3.66l0,0c1.09,0.92,2.74,0.78,3.66-0.32l3.59-4.27C783.68,475.3,783.53,473.65,782.44,472.73z" class="colorfae0b2 svgShape"></path><path fill="#ffd7d7" d="M786.96,472.37L786.96,472.37c-1.09-0.92-2.74-0.78-3.66,0.32l-3.59,4.27        c-0.92,1.09-0.78,2.74,0.32,3.66l0,0c1.09,0.92,2.74,0.78,3.66-0.32l3.59-4.27C788.2,474.94,788.06,473.29,786.96,472.37z" class="colorfae0b2 svgShape"></path><rect width="8.45" height=".54" x="771.16" y="472.12" fill="#ff206d" transform="rotate(-47.018 775.329 472.369)" class="colorfe875e svgShape"></rect><rect width="8.27" height=".54" x="773.62" y="476.98" fill="#ff206d" transform="rotate(-47.031 777.78 477.274)" class="colorfe875e svgShape"></rect><rect width="7.11" height=".54" x="778.59" y="477.14" fill="#ff206d" transform="rotate(-47.031 782.168 477.434)" class="colorfe875e svgShape"></rect><path fill="#5642b7" d="M727.11,389.61c10.08-13.98,25.27-16.65,27.13-16.93c-13.22,2.3-23.35,13.57-23.9,27.3      c-0.02,0.39-0.03,0.79-0.03,1.18v17.29c-22.22,12.47-42.8-17.6-42.8-17.6l10.27-9.53C706.09,400.36,716.36,404.52,727.11,389.61      z" class="color5242b7 svgShape"></path><path fill="#f458f2" d="M811.25,424.21c0,17.99-4.49,32.64-18.5,46.14c-0.48-0.14-1.91-0.46-5.52-3.94      c-2.27-2.18-3.83-7.14-3.83-7.14s0.73-1.21,1.77-3.26l-5.08,0l-31.45,0.03l-17.91,0.02c-1.5,0-2.69-1.26-2.6-2.76l2.17-34.85      v-17.29c0-0.4,0.01-0.79,0.03-1.18c0.54-13.73,10.68-25,23.9-27.3c0.06-0.01,0.13-0.02,0.19-0.03c1.56-0.26,3.16-0.4,4.79-0.4      h10.24c1.62,0,3.22,0.14,4.78,0.4c2.13,0.35,4.18,0.94,6.13,1.74C797.08,380.32,811.25,401.11,811.25,424.21z" class="color6d58f4 svgShape"></path><path fill="#f8588f" d="M780.11,456.06h-31.46v-0.02l5.22-77.86l0.37-5.5c0.06-0.01,0.13-0.02,0.19-0.03      c1.56-0.26,3.16-0.4,4.79-0.4h10.24c1.62,0,3.22,0.14,4.78,0.4l0.4,5.69l5.47,77.67L780.11,456.06z" class="colorf858e3 svgShape"></path><path fill="#ffd7d7" d="M774.64,378.34c-2.51,1.21-6.16,8.1-10.22,8.1c-4.25,0-8.04-6.96-10.55-8.26c0,0,4.19-1.39,3.54-7.01      c0.06,0.2,0.1,0.37,0.13,0.5c0.14,0.69,0.5,1.06,0.5,1.06c3.58-0.62,6.03-1.76,7.7-3.07c0.45-0.15,0.86-0.28,1.22-0.35      c1.6-0.29,4.95-1.17,4.77,0.4C771.25,374.37,774.64,378.34,774.64,378.34z" class="colorfae0b2 svgShape"></path><path fill="#f458f2" d="M754.25,372.68l-5.59,93.04l-24.19-3l6.45-45.5c0,0,9.29-15.23,11.47-23.3      C744.55,385.85,754.25,372.68,754.25,372.68z" class="color6d58f4 svgShape"></path><path fill="#5642b7" d="M778.78,400.68c0,0,3.27,7.24,5.71,18.48c2.44,11.24-1.08,40.1-1.08,40.1l1.77-3.45      c0,0,8.03-16.49,6.85-26.63S786.87,410.06,778.78,400.68z" class="color5242b7 svgShape"></path><path fill="#172851" d="M700.68,393.97c0-0.02,0.01-0.03,0.01-0.04c0-0.02,0-0.03-0.01-0.04c0-0.02,0-0.03-0.01-0.05      c-0.01-0.01-0.02-0.03-0.02-0.04c-0.01-0.01-0.01-0.03-0.02-0.04c0,0,0,0-0.01,0c0,0,0,0,0-0.01l-2.54-2.51      c-0.01-0.01-0.02-0.01-0.03-0.02c-0.01-0.01-0.03-0.02-0.04-0.03c-0.01-0.01-0.03-0.01-0.04-0.01c-0.02,0-0.03-0.01-0.05-0.01      c-0.02,0-0.03,0-0.05,0.01c-0.01,0-0.03,0-0.04,0.01c-0.02,0.01-0.03,0.02-0.04,0.03c-0.01,0.01-0.02,0.01-0.03,0.02l-2.84,2.58      c0,0,0,0,0,0l0,0l-0.94,0.86c0,0,0,0,0,0c0,0,0,0,0,0l-0.94,0.86c0,0,0,0,0,0c0,0,0,0,0,0l-0.94,0.85c0,0,0,0,0,0c0,0,0,0,0,0      l-4.73,4.3c-0.01,0.01-0.01,0.02-0.02,0.03c-0.01,0.01-0.02,0.03-0.03,0.04c-0.01,0.01-0.01,0.03-0.01,0.04      c0,0.02-0.01,0.03-0.01,0.05c0,0.01,0,0.03,0,0.04c0,0.02,0,0.03,0.01,0.05c0,0.02,0.01,0.03,0.02,0.04      c0.01,0.01,0.01,0.02,0.02,0.03l2.15,2.88c0,0,0.01,0,0.01,0.01c0,0,0,0.01,0.01,0.01c0.01,0.02,0.03,0.02,0.05,0.04      c0.01,0.01,0.02,0.02,0.03,0.02c0.03,0.01,0.07,0.02,0.1,0.02c0,0,0,0,0,0l0,0c0.03,0,0.05-0.01,0.08-0.01      c0.01,0,0.02-0.01,0.02-0.01c0.01-0.01,0.03-0.01,0.04-0.02c0,0,0-0.01,0.01-0.01c0,0,0.01,0,0.01-0.01l5.88-5.35c0,0,0,0,0,0      c0,0,0,0,0,0l0.98-0.89l0,0l0,0l0.98-0.89c0,0,0,0,0,0c0,0,0,0,0,0l1.96-1.79c0,0,0,0,0,0s0,0,0,0l0.97-0.88c0,0,0,0,0-0.01      s0,0,0.01,0c0.01-0.01,0.01-0.02,0.02-0.03c0.01-0.01,0.02-0.03,0.03-0.04C700.67,394,700.68,393.98,700.68,393.97z       M699.48,394.48l-2.16-2.2l0.59-0.54l2.2,2.17L699.48,394.48z M698.5,395.37l-2.13-2.23l0.59-0.54l2.16,2.2L698.5,395.37z       M697.52,396.25l-2.1-2.26l0.59-0.54l2.13,2.23L697.52,396.25z M696.54,397.14l-2.07-2.29l0.59-0.54l2.1,2.26L696.54,397.14z       M695.57,398.03l-2.04-2.32l0.59-0.54l2.07,2.29L695.57,398.03z M694.59,398.92l-2.01-2.34l0.59-0.54l2.04,2.32L694.59,398.92z       M693.61,399.81l-1.98-2.37l0.59-0.54l2.01,2.34L693.61,399.81z M692.63,400.7l-1.95-2.4l0.59-0.54l1.98,2.37L692.63,400.7z       M691.65,401.59l-1.92-2.43l0.59-0.54l1.95,2.4L691.65,401.59z M690.68,402.48l-1.89-2.46l0.59-0.54l1.92,2.43L690.68,402.48z       M689.7,403.37l-1.86-2.49l0.59-0.54l1.89,2.46L689.7,403.37z" class="color171c51 svgShape"></path><g fill="#000000" class="color000 svgShape"><circle cx="784.24" cy="441.34" r="5.61" fill="#ffffff" class="colorfff svgShape"></circle><path fill="#ffffff" d="M752.19 438.28c0 4.79 3.89 8.68 8.68 8.68 4.79 0 8.68-3.89 8.68-8.68 0-4.79-3.89-8.68-8.68-8.68C756.07 429.6 752.19 433.48 752.19 438.28zM735.14 441.34c0 3.1 2.51 5.61 5.61 5.61 3.1 0 5.61-2.51 5.61-5.61 0-3.1-2.51-5.61-5.61-5.61C737.65 435.73 735.14 438.25 735.14 441.34z" class="colorfff svgShape"></path></g><path fill="#ffd7d7" d="M771.11,356.22l-18.02,3.1l2.39,6.82l0.01,0.02l0.66,1.88l0.63,1.81l0.13,0.37l2.17,0.25l-1.43,1.39     c0,0,0.7,2.82,6.37,2.82s7.69-2.77,7.69-2.77L771.11,356.22z" class="colorfae0b2 svgShape"></path><path fill="#ffd7d7" d="M771.69,350.71c0.4,8.46-4.26,15.45-12.38,17.87c-6.22,1.85-11.02-0.75-18.27-16.43     c-3.56-7.69,6.14-15.65,14.61-16.04C764.11,335.7,771.29,342.24,771.69,350.71z" class="colorfae0b2 svgShape"></path><path fill="#ff206d" d="M758.27,372.86c0,0-0.4-0.33-0.62-1c-0.24-0.73-1.27-2.79-1.27-2.79s9.73-1.14,11.99-7.64     C768.37,361.43,770.1,369.44,758.27,372.86z" class="colorfe875e svgShape"></path><path fill="#13285b" d="M771.94,347.1c0,0-19.11,6.36-29.37-3.89c0,0,6.52,7.4,11.03,6.61c0,0-6.4,1.98-11.03-5.29     c0,0-1.29,6.69-4.61,8.06c0,0-3.04-18.64,13.02-20.96C767.04,329.32,771.16,339.75,771.94,347.1z" class="color13375b svgShape"></path><path fill="#13285b" d="M737.77 350.43c0 0 .72 8.38 4.17 11 3.45 2.62 3.84 4.02 3.84 4.02s.22-1.61-2.12-8.01c-2.34-6.4-.58-11.53-1.09-14.23C742.06 340.5 737.25 347.14 737.77 350.43zM762.42 348.44c0 0 5.43 1.79 5.44 8.34 0 6.54-4.37 19.19.6 21.8 0 0-3.67-3.97.53-10.42 4.2-6.45 5.06-19.37 1.25-27.79C766.42 331.96 762.42 348.44 762.42 348.44z" class="color13375b svgShape"></path><path fill="#13285b" d="M762.42,332.55c0,0-1.63-6.56,8.04-7.67c9.67-1.12,8.43,22.57,15.25,23.56c0,0-0.65,3.9-6.94-1.74     c-6.29-5.64-7.69-16.12-13.27-12.77C759.92,337.28,762.42,332.55,762.42,332.55z" class="color13375b svgShape"></path></g><g fill="#000000" class="color000 svgShape"><path fill="#ffd7d7" d="M679.54,762.35c0,0,3.69,12.03-0.14,26.79l-12.83-1.07l-36.47-2.79v-0.01c0,0,1.11-5.83,1.11-12.65      c0-6.27-1.11-12.66-1.11-12.66l35.94,1.71L679.54,762.35z" class="colorfae0b2 svgShape"></path><path fill="#33131e" d="M683.38,756.71c0,0,7.14,16.6,0,38.09l-54.27-3.58c-1.17-0.08-2.08-1.47-2.04-3.11      c0.05-1.62,1.01-2.9,2.15-2.9c0.04,0,0.06,0,0.1,0l0.77,0.06l36.47,2.79l12.83,1.07c3.83-14.76,0.14-26.79,0.14-26.79      l-13.5-0.68l-35.94-1.71l-0.88-0.05c-1.15-0.06-2.07-1.38-2.07-3c0-1.65,0.96-2.99,2.13-2.99c0.04,0,0.06,0,0.1,0L683.38,756.71      z" class="colorf79c8d svgShape"></path><polygon fill="#f4588e" points="845.22 751.51 840.04 751.51 683.38 756.71 629.37 753.92 787.01 750.78" class="colorf47458 svgShape"></polygon><path fill="#f4588e" d="M845.22,751.51c0,0,7.54,22.27,0.84,38.8h-6.02l-156.66,4.49c7.14-21.49,0-38.09,0-38.09l156.66-5.2      H845.22z" class="colorf47458 svgShape"></path><path fill="#e583a5" d="M680.37 769.98c-5.65.26-11.28.08-16.9-.2-5.62-.33-11.23-.78-16.82-1.67 5.65-.27 11.28-.09 16.9.2C669.17 768.64 674.78 769.09 680.37 769.98zM651.54 779c-3.15.28-6.26.12-9.35-.15-3.09-.31-6.17-.74-9.21-1.61 3.15-.28 6.26-.12 9.35.15C645.42 777.71 648.5 778.13 651.54 779z" class="colore5bd83 svgShape"></path><path fill="#f8588f" d="M655.7 783.69c-2.33-3.62-1.9-11.85.8-15.2 4.75.25 9.49.5 14.24.75-2.7 3.35-3.13 11.58-.8 15.2-2.93-1.13-5.76-2.56-8.4-4.16C659.43 781.64 657.51 782.82 655.7 783.69zM696.61 794.38c6.71-16.53-.82-38.1-.82-38.1h14.65c0 0 7.53 21.57.82 38.1H696.61zM819.66 791.03c6.71-16.53-.82-38.1-.82-38.1h14.65c0 0 7.53 21.57.82 38.1H819.66z" class="colorf8c558 svgShape"></path></g><g fill="#000000" class="color000 svgShape"><path fill="#443589" d="M777.22,717.92l-3.71,0.34c9.23,0.66,16.17,8.66,15.51,17.88l-0.36,5.11c-0.55,7.7-6.23,13.81-13.47,15.22      l59.59-4.78c9.93-0.96,17.17-9.84,16.15-19.76l-0.28-2.75c-1.01-9.79-9.68-16.94-19.48-16.07l-0.01,0L777.22,717.92z" class="color355389 svgShape"></path><polygon fill="#443589" points="633.74 715.08 773.51 718.26 777.22 717.92 831.15 713.12 831.16 713.12 831.81 713.06" class="color355389 svgShape"></polygon><path fill="#5946b6" d="M637.76,720.71l135.45,3.55c3.06,0.25,5.82,1.77,7.7,4.25c1.62,2.16,2.29,4.89,2.09,7.6l-0.35,4.72      c-0.39,5.5-5.01,9.88-10.51,9.97c-0.31,0.01-0.64-0.01-0.95-0.03l-0.14-0.01l-133.48-3.03l-3.32-0.08      c-1.56-0.04-2.84,1.25-2.81,2.81l0.01,0.49c0.02,1.48,1.21,2.67,2.69,2.71l136.62,3.1c1.52,0.11,3,0.01,4.43-0.27      c7.23-1.41,12.92-7.52,13.47-15.22l0.36-5.11c0.66-9.23-6.28-17.23-15.51-17.88l-139.77-3.18c-1.56-0.04-2.84,1.23-2.81,2.81      c0.02,1.48,1.2,2.67,2.67,2.71L637.76,720.71z" class="color466eb6 svgShape"></path><path fill="#ffd7d7" d="M637.58,747.72l133.48,3.03l0.14,0.01c0.31,0.02,0.64,0.04,0.95,0.03c5.5-0.09,10.12-4.47,10.51-9.97      l0.35-4.72c0.2-2.71-0.47-5.44-2.09-7.6c-1.88-2.48-4.64-4-7.7-4.25l-135.45-3.55c0.05,0.24,1.77,8.3,1.85,13.48      C639.69,739.34,637.58,747.72,637.58,747.72z" class="colorfae0b2 svgShape"></path><path fill="#e583a5" d="M771.26 732.08c-3.91-.65-7.83-1.07-11.75-1.4-3.92-.35-7.85-.55-11.78-.73-3.93-.13-7.86-.24-11.8-.2-3.94.02-7.87.13-11.82.47 3.91.66 7.83 1.07 11.75 1.4 3.92.35 7.85.55 11.78.73 3.93.13 7.86.24 11.8.2C763.38 732.53 767.32 732.42 771.26 732.08zM738.95 743.07c-3.91-.65-7.83-1.07-11.75-1.4-3.92-.35-7.85-.55-11.78-.73-3.93-.13-7.86-.24-11.8-.2-3.94.02-7.87.13-11.82.47 3.91.66 7.83 1.07 11.75 1.4 3.92.35 7.85.55 11.78.73 3.93.13 7.86.24 11.8.2C731.07 743.51 735 743.41 738.95 743.07z" class="colore5bd83 svgShape"></path><path fill="#6350bf" d="M733.63,763.46c-5.43-7.27-5.78-25.25-0.58-32.69c10.01-0.16,18.92,0.9,28.93,0.74     c-5.19,7.44-3.73,24.2,1.7,31.47c-6.33-1.94-12.49-4.55-18.26-7.53C741.17,758.59,737.32,761.36,733.63,763.46z" class="color50bfa5 svgShape"></path><path fill="#e583a5" d="M704.34,736.04c-5.38-0.65-10.77-1.07-16.16-1.4c-5.39-0.35-10.78-0.55-16.18-0.73     c-5.4-0.13-10.79-0.24-16.19-0.2c-5.4,0.02-10.8,0.13-16.21,0.47c5.38,0.65,10.77,1.07,16.16,1.4     c5.39,0.35,10.78,0.55,16.18,0.73c5.4,0.13,10.79,0.23,16.19,0.2C693.53,736.49,698.93,736.38,704.34,736.04z" class="colore5bd83 svgShape"></path></g><g fill="#000000" class="color000 svgShape"><path fill="#ffd7d7" d="M710.41,686.19c0,0,5.18,12.03-0.19,26.79l-20.39-1.12l-51.13-2.79v-0.01c0,0,1.55-5.83,1.55-12.65      c0-6.27-1.55-12.66-1.55-12.66v-0.01l50.4,1.72L710.41,686.19z" class="colorfae0b2 svgShape"></path><path fill="#bf50bd" d="M637.63,709.01l1.07,0.06l51.13,2.79l20.39,1.12c5.37-14.76,0.19-26.79,0.19-26.79l-21.31-0.73l-50.4-1.72      l-1.21-0.04c-1.62-0.06-2.9-1.38-2.9-3c0-1.65,1.35-2.99,2.98-2.99c0.05,0,0.08,0,0.13,0l75.7,2.8c0,0,10,16.6,0,38.09      l-76.06-3.58c-1.63-0.08-2.91-1.47-2.86-3.11c0.06-1.62,1.41-2.9,3.02-2.9C637.55,709.01,637.59,709.01,637.63,709.01z" class="colorbf50a7 svgShape"></path><polygon fill="#8f3c8e" points="637.71 677.71 845.14 675.09 844 675.14 713.4 680.51" class="color8f3c7d svgShape"></polygon><path fill="#8f3c8e" d="M715.93,680.4L844,675.14c6.38-0.25,11.7,4.84,11.74,11.23l0.08,15.95c0.04,6.1-4.77,11.12-10.86,11.35      L713.4,718.6c10-21.49,0-38.09,0-38.09L715.93,680.4z" class="color8f3c7d svgShape"></path><path fill="#e583a5" d="M710.03 696.49c-3.95.28-7.89.32-11.83.28-3.94-.03-7.86-.19-11.79-.39-3.92-.24-7.85-.51-11.76-.92-3.92-.39-7.83-.87-11.72-1.59 3.95-.28 7.89-.32 11.83-.28 3.94.03 7.86.19 11.79.39 3.92.24 7.85.51 11.76.92C702.22 695.3 706.13 695.78 710.03 696.49zM668.26 702.79c-4.38.28-8.72.12-13.06-.15-4.34-.31-8.66-.74-12.96-1.61 4.38-.29 8.72-.12 13.06.15C659.63 701.5 663.96 701.92 668.26 702.79z" class="colore5bd83 svgShape"></path><path fill="#443589" d="M675.27,720.02c-3.99-5.88-3.59-19.85,0.74-25.48c7.85,0.23,15.4,1.2,23.25,1.42     c-4.33,5.64-4.44,18.86-0.45,24.74c-4.88-1.75-9.62-4-14.03-6.54C681.35,716.48,678.23,718.51,675.27,720.02z" class="color355389 svgShape"></path></g><g fill="#000000" class="color000 svgShape"><path fill="#ffd7d7" d="M792.21,648.64c0,0-3.55,12.07,0.44,26.79l12.82-1.21l36.44-3.2l0-0.01c0,0-1.17-5.81-1.25-12.64      c-0.07-6.27,0.96-12.67,0.96-12.67l-35.92,2.11L792.21,648.64z" class="colorfae0b2 svgShape"></path><path fill="#33131e" d="M788.31,643.05c0,0-6.95,16.68,0.43,38.09l54.22-4.19c1.16-0.1,2.06-1.49,2.01-3.13      c-0.07-1.62-1.04-2.88-2.18-2.87c-0.04,0-0.06,0-0.1,0l-0.77,0.07l-36.44,3.2l-12.82,1.21c-4-14.72-0.44-26.79-0.44-26.79      l13.49-0.84l35.92-2.11l0.88-0.06c1.15-0.07,2.05-1.4,2.03-3.03c-0.02-1.65-0.99-2.98-2.16-2.97c-0.04,0-0.06,0-0.1,0      L788.31,643.05z" class="colorf79c8d svgShape"></path><polygon fill="#f4588e" points="626.43 639.66 631.6 639.6 788.31 643.05 842.28 639.65 684.62 638.28" class="colorf47458 svgShape"></polygon><path fill="#f4588e" d="M626.43,639.66c0,0-7.29,22.36-0.41,38.81l6.02-0.07l156.7,2.74c-7.38-21.41-0.43-38.09-0.43-38.09      l-156.7-3.45L626.43,639.66z" class="colorf47458 svgShape"></path><path fill="#e583a5" d="M791.47 656.28c5.65.2 11.28-.04 16.89-.39 5.61-.4 11.22-.9 16.8-1.85-5.65-.2-11.28.04-16.89.39C802.65 654.82 797.05 655.33 791.47 656.28zM820.39 664.98c3.15.25 6.26.05 9.35-.26 3.09-.35 6.17-.81 9.19-1.71-3.15-.25-6.26-.05-9.35.26C826.5 663.62 823.42 664.07 820.39 664.98z" class="colore5bd83 svgShape"></path><path fill="#f8588f" d="M816.29 669.72c2.29-3.64 1.77-11.87-.97-15.19-4.74.3-9.49.61-14.23.91 2.74 3.32 3.26 11.55.97 15.19 2.92-1.16 5.73-2.62 8.35-4.25C812.54 667.7 814.47 668.86 816.29 669.72zM775.5 680.86c-6.9-16.46.4-38.11.4-38.11l-14.65.16c0 0-7.29 21.65-.4 38.11L775.5 680.86zM652.42 678.89c-6.9-16.46.4-38.11.4-38.11l-14.65.16c0 0-7.29 21.65-.4 38.11L652.42 678.89z" class="colorf8c558 svgShape"></path></g><g fill="#000000" class="color000 svgShape"><polygon fill="#ffd7d7" points="731.38 510.46 729.28 527.34 713.98 524.99 713.87 524.56 713.33 522.45 712.75 520.26 712.75 520.23 710.68 512.28" class="colorfae0b2 svgShape"></polygon><path fill="#ffd7d7" d="M732.56,504.27c-0.35,9.63-6.39,18.53-16.02,18.18c-9.63-0.35-17.07-0.3-18.84-19.43      c-0.89-9.59,8.43-17.15,18.06-16.8C725.38,486.56,732.91,494.64,732.56,504.27z" class="colorfae0b2 svgShape"></path><path fill="#13285b" d="M721.08,479.86c0,0-0.21-13.87-20.84-12.91c-19,0.88-19.91,44.14,14.24,28.04c2.97-1.4,6.37-1.66,9.48-0.62      c0.48,0.16,0.92,0.33,1.25,0.49c1.84,0.9,1.57,6.02,1.57,6.02s2.44-1.93,3.15,1.42s-2.42,3.86-2.42,3.86l2.06,8.72      c0,0,3.27-5.32,5.51-14.58C737.24,491.31,729.87,477.12,721.08,479.86z" class="color13375b svgShape"></path><path fill="#ff206d" d="M714.38,526.95l-1.06-4.5c0,0,11.1,0.91,15.08-5.83C728.41,516.62,728.34,525.79,714.38,526.95z" class="colorfe875e svgShape"></path><path fill="#f8588f" d="M699.75,528.18c0,0,24.23-5.24,23.51,2.7c-0.31,3.39-10.71,18.63-10.95,19.89     c-0.16,0.92-0.36,1.86-0.55,2.79c-0.19,0.93-0.39,1.86-0.62,2.81c-0.23,0.94-0.44,1.88-0.7,2.82l-0.81,2.85     c-0.13,0.47-0.28,0.95-0.45,1.44l-0.48,1.45l-0.49,1.44l-0.57,1.48l-0.59,1.47c-0.1,0.25-0.19,0.49-0.3,0.74l-0.35,0.76     l-0.71,1.52l-0.36,0.76l-0.18,0.38l-0.3,0.57c-0.44,0.78-0.87,1.57-1.37,2.31c-0.52,0.72-1.05,1.43-1.61,2.11     c-0.58,0.63-1.17,1.25-1.78,1.85c-0.61,0.56-1.24,1.07-1.88,1.58c-2.56,1.92-5.16,3.15-7.61,3.99c-0.61,0.19-1.24,0.43-1.82,0.57     l-1.78,0.45c-1.15,0.24-2.31,0.45-3.41,0.59c-2.22,0.29-4.37,0.4-6.42,0.38c-4.13-0.02-8.01-0.52-11.77-1.21     c-1.88-0.38-3.73-0.78-5.55-1.28c-0.91-0.26-1.82-0.51-2.73-0.79l-1.36-0.45l-1.45-0.5l2.41-13.27c0.11-0.03,0.34-0.03,0.52-0.05     l0.59-0.04l1.2-0.09c0.8-0.05,1.61-0.11,2.42-0.18c1.61-0.15,3.21-0.28,4.78-0.5c3.14-0.37,6.18-0.91,8.93-1.63     c1.38-0.34,2.66-0.78,3.81-1.23c0.28-0.12,0.58-0.22,0.83-0.35c0.26-0.13,0.51-0.25,0.77-0.36l0.68-0.38     c0.24-0.12,0.39-0.26,0.59-0.38c0.72-0.51,1.09-2.23,1.09-2.23l0.24-0.89l0.12-0.44c0.04-0.15,0.07-0.33,0.11-0.49l0.21-0.99     l0.23-0.98l0.19-1.06c0.12-0.72,0.27-1.38,0.37-2.13c0.24-1.46,0.72-6.52,1.31-13.23C686.3,535.59,691.48,530.03,699.75,528.18     L699.75,528.18z" class="colorf8c558 svgShape"></path><path fill="#f4588e" d="M756.3,583.09l1.21-21.69c0.98-17.4,0.05-35.61-27.9-35.59c-0.03-0.01-0.07-0.01-0.11-0.02       c-1.85-0.3-3.22-0.43-3.86-0.48c-0.27-0.02-0.42-0.03-0.42-0.03c-36.03,0-35.06,13.39-36.12,32.28l-1.14,20.32l-1.7,30.32       l68.41,3.83L756.3,583.09z" class="colorf47458 svgShape"></path><path fill="#7458f8" d="M725.64,525.31c0.65,0.05,2.01,0.18,3.86,0.48C728.24,525.56,726.95,525.4,725.64,525.31z" class="color587cf8 svgShape"></path><path fill="#ffd7d7" d="M704.98,603.6h6.43c2.78,0,5.04-2.26,5.04-5.04l0,0c0-2.78-2.26-5.04-5.04-5.04h-6.43       c-2.78,0-5.04,2.26-5.04,5.04l0,0C699.94,601.35,702.2,603.6,704.98,603.6z" class="colorfae0b2 svgShape"></path><path fill="#ffd7d7" d="M705.79,595.71L705.79,595.71c-0.31-1.26-1.6-2.04-2.85-1.72l-7.6,1.88c-1.26,0.31-2.04,1.6-1.72,2.85       l0,0c0.31,1.26,1.6,2.04,2.85,1.72l7.6-1.88C705.32,598.26,706.1,596.97,705.79,595.71z" class="colorfae0b2 svgShape"></path><path fill="#ffd7d7" d="M703.58,598.68L703.58,598.68c-0.31-1.26-1.6-2.04-2.85-1.72l-8.34,2.06c-1.26,0.31-2.04,1.6-1.72,2.85       l0,0c0.31,1.26,1.6,2.04,2.85,1.72l8.34-2.06C703.12,601.22,703.89,599.94,703.58,598.68z" class="colorfae0b2 svgShape"></path><path fill="#ff0a5c" d="M626.36 695.15c0 0 3.01 3.37.15 6.75l-8.28-3.39c.81-1.46 2.26-2.48 3.94-2.72C623.81 695.55 625.16 695.35 626.36 695.15zM665.55 704.94l-2.39 5.84c-7.55-3.2-3.96-9.6-3.96-9.6 3.12 1.05 5.04 1.53 5.38 1.62.04.01.06.01.06.01l.03.01C665.49 703.17 665.89 704.11 665.55 704.94z" class="colorf8a492 svgShape"></path><path fill="#f4588e" d="M637.58,693.2c0.78-0.14,1.61-0.29,2.53-0.44c0,0,0.68,0.4,1.92,1.06c2.05,1.09,5.64,2.89,10.1,4.71        c0.38,0.15,0.75,0.31,1.11,0.44c2.3,0.92,4.32,1.65,5.99,2.22c0,0-3.59,6.39,3.96,9.6l-2.15,5.26l-34.52-14.14        c2.86-3.39-0.15-6.75-0.15-6.75c2.51-0.4,4.4-0.73,6.96-1.19C634.54,693.74,635.91,693.5,637.58,693.2z" class="colorf47458 svgShape"></path><path fill="#b742b5" d="M661.03,716.05l-0.08,0.19c-0.43,1.05-1.62,1.55-2.67,1.12l-39.46-16.16c-0.41-0.17-0.71-0.49-0.87-0.87        c-0.16-0.38-0.17-0.82,0-1.23c0.08-0.2,0.18-0.39,0.28-0.58l8.28,3.39L661.03,716.05z" class="colorb75742 svgShape"></path><path fill="#ffd7d7" d="M666.42,698.53l-1.76,4.29c0,0-0.02-0.01-0.06-0.01c-0.61-0.18-5.96-1.61-11.21-3.68        c-0.36-0.14-0.89-0.44-1.27-0.6c-4.47-1.83-8.05-3.63-10.1-4.71c-1.19-0.64-1.84-1.02-1.84-1.02l1.76-4.29l22.62,9.26        L666.42,698.53z" class="colorfae0b2 svgShape"></path><path fill="#ff0a5c" d="M639.45 698.29c-.06-.02-.11-.07-.14-.14l-1.97-4.87c-.05-.13.01-.27.13-.32.13-.05.27.01.32.13l1.97 4.86c.05.13-.01.27-.13.32C639.57 698.32 639.51 698.32 639.45 698.29zM637.28 698.75c-.06-.02-.11-.07-.14-.14l-1.97-4.87c-.05-.13.01-.27.13-.32.13-.05.27.01.32.13l1.97 4.87c.05.13-.01.27-.13.32C637.41 698.78 637.34 698.78 637.28 698.75zM635.19 699.03c-.06-.02-.11-.07-.14-.14l-1.96-4.84c0-.01-.01-.04-.02-.05-.04-.13.04-.26.17-.3.13-.04.26.04.3.17l.01.02 1.95 4.81c.05.13-.01.27-.13.32C635.31 699.06 635.25 699.06 635.19 699.03zM699 710.76c0 0 4.5.34 4.79 4.77l-8.32 3.29c-.43-1.62-.09-3.35.96-4.7C697.43 712.81 698.27 711.73 699 710.76zM734.04 690.67l2.32 5.87c-7.67 2.92-9.51-4.18-9.51-4.18 2.97-1.4 4.7-2.38 5-2.56.03-.02.05-.03.05-.03l.03-.01C732.77 689.43 733.71 689.84 734.04 690.67z" class="colorf8a492 svgShape"></path><path fill="#f4588e" d="M705.73,701.58c0.46-0.64,0.97-1.32,1.52-2.07c0,0,0.77-0.19,2.12-0.57c2.24-0.64,6.06-1.82,10.55-3.6        c0.38-0.15,0.75-0.3,1.11-0.45c2.3-0.93,4.26-1.8,5.86-2.55c0,0,1.84,7.1,9.51,4.18l2.09,5.29l-34.69,13.72        c-0.29-4.42-4.79-4.77-4.79-4.77c1.54-2.03,2.66-3.57,4.19-5.68C703.92,704.08,704.73,702.95,705.73,701.58z" class="colorf47458 svgShape"></path><path fill="#b742b5" d="M738.47,701.81l0.08,0.19c0.42,1.05-0.1,2.24-1.15,2.66l-39.65,15.68c-0.41,0.16-0.85,0.14-1.23-0.02        c-0.38-0.17-0.69-0.47-0.86-0.89c-0.08-0.2-0.14-0.41-0.2-0.61l8.32-3.29L738.47,701.81z" class="colorb75742 svgShape"></path><path fill="#ffd7d7" d="M730.23,685.44l1.7,4.31c0,0-0.02,0.01-0.05,0.03c-0.56,0.3-5.42,2.97-10.63,5.11        c-0.36,0.15-0.95,0.3-1.33,0.45c-4.49,1.78-8.32,2.96-10.55,3.6c-1.3,0.36-2.03,0.54-2.03,0.54l-1.7-4.31l22.73-8.99        L730.23,685.44z" class="colorfae0b2 svgShape"></path><path fill="#ff0a5c" d="M710.61 703.96c-.06.02-.13.02-.19 0l-4.79-2.15c-.12-.06-.18-.2-.12-.32.06-.12.2-.18.32-.12l4.79 2.15c.12.06.18.2.12.32C710.72 703.89 710.67 703.93 710.61 703.96zM709.37 705.79c-.06.02-.13.02-.19 0l-4.79-2.14c-.12-.05-.18-.2-.12-.32.06-.12.2-.18.32-.12l4.79 2.14c.12.05.18.2.12.32C709.47 705.72 709.43 705.77 709.37 705.79zM708.05 707.44c-.06.02-.13.02-.19 0l-4.77-2.13c-.01 0-.04-.02-.05-.03-.12-.07-.15-.22-.08-.34.07-.12.22-.15.34-.08l.02.01 4.74 2.12c.12.06.18.2.12.32C708.16 707.38 708.11 707.42 708.05 707.44z" class="colorf8a492 svgShape"></path><path fill="#443589" d="M728,605c0,0-31.5-1.63-56.05-1.63s-32.7,7.99-29.52,31.14c3.23,23.48-1.63,53.65-1.63,53.65l28.04,11.32      c0,0,12.03-48.87,9.43-60.17C678.27,639.31,732.4,645.17,728,605z" class="color355389 svgShape"></path><g fill="#000000" class="color000 svgShape"><path fill="#5946b6" d="M755.19,619.14c-4.19,27.58-39.64,21.12-39.64,21.12c2.6,11.29,16.16,44.69,16.16,44.69l-28.01,10.91       c0,0-18.78-37.63-23.99-60.4c-5.21-22.77,4.96-31.14,29.52-31.14c13.76,0,26.56,1.19,35.16,2.25c6.75,0.82,10.9,1.56,10.9,1.56       C755.74,612.3,755.68,615.95,755.19,619.14z" class="color466eb6 svgShape"></path><path fill="#172851" d="M727.5,686.43l-0.54-1.23l0.45-0.2l0.51,1.17c0.04,0.1,0.05,0.11,0.05,0.17h-0.49h0.24L727.5,686.43z         M726.36,683.84l-0.59-1.35l0.45-0.2l0.59,1.35L726.36,683.84z M725.19,681.14l-0.58-1.35l0.45-0.19l0.58,1.35L725.19,681.14z         M724.02,678.44l-0.58-1.35l0.45-0.19l0.58,1.35L724.02,678.44z M722.86,675.73l-0.58-1.35l0.45-0.19l0.58,1.35L722.86,675.73        z M721.7,673.03l-0.57-1.35l0.45-0.19l0.57,1.35L721.7,673.03z M720.56,670.32l-0.57-1.35l0.45-0.19l0.57,1.35L720.56,670.32z         M719.42,667.61l-0.57-1.36l0.45-0.19l0.57,1.36L719.42,667.61z M718.28,664.9l-0.56-1.36l0.45-0.19l0.56,1.36L718.28,664.9z         M717.16,662.18l-0.56-1.36l0.45-0.19l0.56,1.36L717.16,662.18z M716.04,659.46c-0.19-0.45-0.37-0.91-0.55-1.36l0.45-0.18        c0.18,0.45,0.37,0.91,0.55,1.36L716.04,659.46z M714.94,656.74c-0.18-0.46-0.37-0.91-0.55-1.36l0.45-0.18        c0.18,0.45,0.36,0.91,0.55,1.36L714.94,656.74z M713.85,654.01c-0.18-0.46-0.36-0.91-0.54-1.37l0.46-0.18        c0.18,0.45,0.36,0.91,0.54,1.37L713.85,654.01z M712.77,651.27c-0.18-0.46-0.36-0.92-0.53-1.37l0.46-0.18        c0.17,0.45,0.35,0.91,0.53,1.37L712.77,651.27z M711.71,648.53c-0.18-0.46-0.35-0.92-0.52-1.38l0.46-0.17        c0.17,0.45,0.34,0.91,0.52,1.37L711.71,648.53z M710.67,645.77c-0.17-0.47-0.34-0.93-0.51-1.38l0.46-0.17        c0.16,0.45,0.33,0.91,0.51,1.38L710.67,645.77z M709.66,643.01c-0.17-0.47-0.33-0.94-0.49-1.39l0.46-0.16        c0.16,0.45,0.32,0.91,0.49,1.39L709.66,643.01z M708.7,640.23c-0.16-0.48-0.32-0.95-0.46-1.4l0.47-0.15        c0.14,0.45,0.3,0.91,0.46,1.39L708.7,640.23z M707.8,637.41c-0.15-0.5-0.29-0.98-0.4-1.42l0.47-0.13        c0.12,0.44,0.25,0.91,0.4,1.41L707.8,637.41z M714.95,635.58c-0.46,0-0.9,0-1.32-0.01l0.01-0.49        c0.42,0.01,0.86,0.01,1.31,0.01l0.15,0v0.49L714.95,635.58z M716.58,635.56l-0.01-0.49c0.48-0.01,0.96-0.03,1.46-0.05        l0.02,0.49C717.55,635.53,717.06,635.55,716.58,635.56z M712.16,635.52c-0.53-0.02-1.02-0.05-1.47-0.08l0.03-0.49        c0.45,0.03,0.94,0.05,1.46,0.08L712.16,635.52z M719.52,635.42l-0.03-0.49c0.48-0.03,0.97-0.07,1.46-0.12l0.05,0.49        C720.5,635.35,720.01,635.39,719.52,635.42z M709.22,635.34c-0.66-0.06-1.16-0.11-1.47-0.15l0.06-0.49        c0.3,0.04,0.8,0.09,1.45,0.15L709.22,635.34z M722.46,635.14l-0.06-0.49c0.48-0.06,0.96-0.12,1.45-0.19l0.07,0.48        C723.43,635.02,722.94,635.09,722.46,635.14z M725.38,634.71l-0.09-0.48c0.48-0.09,0.96-0.18,1.44-0.28l0.1,0.48        C726.35,634.53,725.86,634.63,725.38,634.71z M728.27,634.11l-0.12-0.48c0.48-0.12,0.96-0.24,1.41-0.37l0.13,0.47        C729.24,633.87,728.76,633.99,728.27,634.11z M731.12,633.32l-0.15-0.47c0.47-0.15,0.93-0.31,1.38-0.47l0.17,0.46        C732.06,633,731.59,633.16,731.12,633.32z M733.9,632.3l-0.19-0.45c0.46-0.19,0.9-0.39,1.33-0.59l0.21,0.44        C734.81,631.91,734.36,632.11,733.9,632.3z M736.57,631.05l-0.23-0.43c0.43-0.23,0.86-0.47,1.27-0.71l0.25,0.42        C737.45,630.57,737.01,630.81,736.57,631.05z M739.11,629.52l-0.27-0.41c0.4-0.27,0.8-0.56,1.18-0.85l0.3,0.39        C739.93,628.95,739.52,629.25,739.11,629.52z M741.46,627.71l-0.32-0.37c0.36-0.32,0.72-0.65,1.06-0.99l0.35,0.35        C742.2,627.05,741.83,627.39,741.46,627.71z M743.56,625.62l-0.37-0.32c0.32-0.36,0.63-0.74,0.92-1.12l0.39,0.3        C744.2,624.86,743.88,625.25,743.56,625.62z M745.35,623.26l-0.41-0.27c0.26-0.4,0.52-0.82,0.75-1.24l0.43,0.24        C745.88,622.42,745.62,622.85,745.35,623.26z M746.8,620.68l-0.44-0.21c0.2-0.43,0.4-0.88,0.58-1.33l0.45,0.18        C747.2,619.78,747.01,620.24,746.8,620.68z M747.89,617.93l-0.47-0.15c0.15-0.45,0.28-0.92,0.41-1.39l0.47,0.12        C748.18,616.99,748.04,617.46,747.89,617.93z" class="color171c51 svgShape"></path><path fill="#443589" d="M755.19,619.14c-6.04-0.05-10.92-4.96-10.92-11.02c0-0.53,0.04-1.05,0.11-1.56       c6.75,0.82,10.9,1.56,10.9,1.56C755.74,612.3,755.68,615.95,755.19,619.14z" class="color355389 svgShape"></path><path fill="#172851" d="M755.19 619.38c-6.15-.05-11.16-5.1-11.16-11.26 0-.53.04-1.06.12-1.59l.48.07c-.07.51-.11 1.02-.11 1.52 0 5.89 4.79 10.72 10.67 10.77L755.19 619.38zM701.91 692.23l-.18-.45.94-.38.18.45L701.91 692.23zM704.22 691.3l-.18-.45 1.36-.55.18.45L704.22 691.3zM706.94 690.2l-.18-.45 1.36-.55.18.45L706.94 690.2zM709.66 689.1l-.18-.45 1.36-.55.18.45L709.66 689.1zM712.38 688l-.18-.45 1.36-.55.18.45L712.38 688zM715.1 686.9l-.18-.45 1.36-.55.18.45L715.1 686.9zM717.82 685.8l-.18-.45 1.36-.55.18.45L717.82 685.8zM720.54 684.7l-.18-.45 1.36-.55.18.45L720.54 684.7zM723.27 683.6l-.18-.45 1.36-.55.18.45L723.27 683.6zM725.99 682.5l-.18-.45 1.36-.55.18.45L725.99 682.5zM728.71 681.4l-.18-.45 1.36-.55.18.45L728.71 681.4z" class="color171c51 svgShape"></path></g><g fill="#000000" class="color000 svgShape"><path fill="#d1d1d1" d="M666.96,603.43h27.22c-0.57,0-1.09,0.19-1.47,0.51c-0.38,0.31-0.61,0.75-0.61,1.23       c0,0.96,0.94,1.75,2.08,1.75H638.2c-1.14,0-2.08-0.79-2.08-1.75c0-0.48,0.24-0.92,0.61-1.23c0.38-0.32,0.9-0.51,1.47-0.51       H666.96z" class="colord1d1d1 svgShape"></path><path fill="#9e9e9e" d="M724.69,603.43c0.96,0,1.75,0.78,1.75,1.75c0,0.48-0.19,0.92-0.51,1.24c-0.32,0.31-0.76,0.51-1.24,0.51       h-30.87c-0.96,0-1.75-0.79-1.75-1.75c0-0.48,0.19-0.92,0.51-1.23c0.32-0.32,0.76-0.51,1.24-0.51h30.22H724.69z" class="color9e9e9e svgShape"></path><path fill="#d1d1d1" d="M695.67,602.52c-0.47,0.58-1.17,0.91-1.91,0.91h-2.21c0.75,0,1.44-0.34,1.91-0.91       c0.47-0.58,0.65-1.33,0.5-2.06l-7.31-34.95c-0.24-1.14-1.26-1.96-2.42-1.96h2.21c1.16,0,2.18,0.83,2.42,1.96l7.31,34.95       C696.32,601.19,696.14,601.93,695.67,602.52z" class="colord1d1d1 svgShape"></path><path fill="#f4f4f4" d="M693.46,602.52c-0.47,0.58-1.17,0.91-1.91,0.91h-53.12c-1.16,0-2.18-0.83-2.42-1.96l-7.31-34.95       c-0.15-0.73,0.03-1.48,0.5-2.06c0.47-0.58,1.17-0.91,1.91-0.91h53.11c1.16,0,2.18,0.83,2.42,1.96l7.31,34.95       C694.12,601.19,693.94,601.93,693.46,602.52z" class="colorf4f4f4 svgShape"></path><path fill="#ffffff" d="M664.21,583.48c0,1.59-1.29,2.88-2.88,2.88c-1.59,0-2.88-1.29-2.88-2.88s1.29-2.88,2.88-2.88       C662.92,580.6,664.21,581.89,664.21,583.48z" class="colorfff svgShape"></path></g><path fill="#f8588f" d="M756.19,539.14c1.24,4.67,2.38,9.2,2.61,10.97c4.7,19.35-0.37,34.23-4.26,40.8     c-10.27,14.27-45.29,12.52-45.29,12.52l0.96-11.54c0,0,13.61-1.27,24.4-6.64c8.78-4.16,2.75-26.5-1.88-38.46     c-2.48-6.4,0.73-13.59,7.15-16.02l0,0C746.73,528.19,754.3,532.08,756.19,539.14z" class="colorf8c558 svgShape"></path></g></g></svg></g></svg>